<?xml version="1.0" encoding="UTF-8" standalone="no"?><!DOCTYPE svg PUBLIC "-//W3C//DTD SVG 1.1//EN" "http://www.w3.org/Graphics/SVG/1.1/DTD/svg11.dtd"><svg width="100%" height="100%" viewBox="0 0 227 16" version="1.1" xmlns="http://www.w3.org/2000/svg" xmlns:xlink="http://www.w3.org/1999/xlink" xml:space="preserve" xmlns:serif="http://www.serif.com/" style="fill-rule:evenodd;clip-rule:evenodd;stroke-linejoin:round;stroke-miterlimit:2;"><path d="M226.5,0.8c0,-0.441 -0.356,-0.8 -0.793,-0.8l-224.914,0c-0.437,0 -0.793,0.359 -0.793,0.8l0,14.4c0,0.441 0.356,0.8 0.793,0.8l224.914,0c0.437,0 0.793,-0.359 0.793,-0.8l0,-14.4Z" style="fill:#253238;"/><path d="M23.767,5.596l-2.317,1.904l0,0.65l2.303,1.911l0.441,-0.56l-2.044,-1.638l0,-0.077l2.037,-1.638l-0.42,-0.553l0,0.001Z" style="fill:#89ddf3;fill-rule:nonzero;"/><path d="M27.19,5.883l0.063,-0.98l-0.819,0l-0.049,0.979l0.805,0l0,0.001Zm1.169,4.011l0.063,-0.588l-1.211,0l0,-2.898l-1.946,0.001l-0.063,0.553l1.225,0.056l0,2.289l-1.211,0l0,0.588l3.143,0l0,-0.001Z" style="fill:#eb6f76;fill-rule:nonzero;"/><path d="M30.011,6.982c0.175,0 0.252,0.105 0.252,0.399l0,2.513l0.553,0l0,-2.751c0.105,-0.105 0.217,-0.161 0.343,-0.161c0.182,0 0.266,0.105 0.266,0.406l0,2.506l0.721,0l0,-2.779c0,-0.518 -0.196,-0.798 -0.595,-0.798c-0.308,0 -0.553,0.168 -0.742,0.378c-0.07,-0.238 -0.231,-0.378 -0.504,-0.378c-0.287,0 -0.532,0.168 -0.721,0.378l-0.028,-0.301l-0.665,0.042c0.028,0.791 0.028,1.89 0.028,3.458l0.721,0c0,-1.148 -0.007,-2.079 -0.021,-2.73c0.126,-0.119 0.259,-0.182 0.392,-0.182Z" style="fill:#eb6f76;fill-rule:nonzero;"/><path d="M33.294,11.119c1.988,-0.098 2.464,-0.896 2.464,-2.17c0,-0.567 -0.007,-2.072 -0.021,-2.457c-0.35,-0.105 -0.7,-0.168 -1.05,-0.168c-1.029,0 -1.89,0.707 -1.89,1.813c0,0.896 0.553,1.449 1.281,1.449c0.371,0 0.665,-0.126 0.896,-0.294c-0.021,0.882 -0.203,1.001 -1.75,1.127l0.07,0.7Zm1.085,-2.143c-0.455,0 -0.812,-0.329 -0.812,-1.022c0,-0.644 0.343,-0.973 0.84,-0.973c0.182,0 0.371,0.035 0.567,0.091l0,1.757c-0.189,0.091 -0.392,0.147 -0.595,0.147Z" style="fill:#eb6f76;fill-rule:nonzero;"/><path d="M42.877,5.841l0.294,-0.959l-0.868,0.042l-0.224,0.951l0.798,-0.034Zm0.644,3.709l-0.07,-0.392c-1.379,0.288 -1.491,0.19 -1.337,-0.419l0.609,-2.331l-0.637,0l-1.456,0.343l0.049,0.392l1.169,-0.099l-0.497,1.827c-0.294,1.078 0.308,1.47 2.17,0.679Z" style="fill:#ffcb6b;fill-rule:nonzero;"/><path d="M45.432,9.271c-0.231,0 -0.413,-0.203 -0.413,-0.665c0,-0.785 0.476,-1.666 1.029,-1.666c0.14,-0.001 0.364,0.035 0.602,0.111l-0.336,1.73c-0.287,0.28 -0.637,0.49 -0.882,0.49Zm2.205,0.322l-0.063,-0.364c-0.602,0.188 -0.63,0.125 -0.56,-0.267l0.784,-4.004l-0.749,0.056l-0.259,1.331c-0.133,-0.022 -0.259,-0.029 -0.378,-0.029c-1.302,0.001 -2.135,1.246 -2.135,2.499c0,0.777 0.336,1.163 0.763,1.163c0.371,0 0.833,-0.308 1.225,-0.694c-0.056,0.708 0.259,0.946 1.372,0.309Z" style="fill:#ffcb6b;fill-rule:nonzero;"/><path d="M51.186,6.688l-2.842,-0.001l0,0.658l2.842,0l0,-0.658l0,0.001Zm0,1.541l-2.842,0l0,0.657l2.842,0l0,-0.657Z" style="fill:#89ddf3;fill-rule:nonzero;"/><path d="M54.609,7.283l0.329,-1.799l-0.021,-0.308l-0.882,0l0.035,2.107l0.539,0Zm-1.561,0l0.329,-1.799l-0.014,-0.308l-0.889,0l0.035,2.107l0.539,0Z" style="fill:#89ddf3;fill-rule:nonzero;"/><path d="M58.641,6.373c-1.827,-0.126 -2.471,0.448 -2.471,1.05c0,0.875 1.862,1.001 1.862,1.498c0,0.273 -0.427,0.434 -1.813,0.343l-0.028,0.665c2.009,0.091 2.653,-0.448 2.653,-1.05c0,-0.875 -1.869,-1.078 -1.869,-1.547c0,-0.245 0.399,-0.399 1.694,-0.288l-0.028,-0.672l0,0.001Z" style="fill:#c1e68c;fill-rule:nonzero;"/><path d="M61.84,5.883l0.063,-0.98l-0.819,0l-0.049,0.979l0.805,0l0,0.001Zm1.169,4.011l0.063,-0.588l-1.211,0l0,-2.898l-1.946,0.001l-0.063,0.553l1.225,0.056l0,2.289l-1.211,0l0,0.588l3.143,0l0,-0.001Z" style="fill:#c1e68c;fill-rule:nonzero;"/><path d="M64.094,11.119c1.988,-0.098 2.464,-0.896 2.464,-2.17c0,-0.567 -0.007,-2.072 -0.021,-2.457c-0.35,-0.105 -0.7,-0.168 -1.05,-0.168c-1.029,0 -1.89,0.707 -1.89,1.813c0,0.896 0.553,1.449 1.281,1.449c0.371,0 0.665,-0.126 0.896,-0.294c-0.021,0.882 -0.203,1.001 -1.75,1.127l0.07,0.7Zm1.085,-2.143c-0.455,0 -0.812,-0.329 -0.812,-1.022c0,-0.644 0.343,-0.973 0.84,-0.973c0.182,0 0.371,0.035 0.567,0.091l0,1.757c-0.189,0.091 -0.392,0.147 -0.595,0.147Z" style="fill:#c1e68c;fill-rule:nonzero;"/><path d="M70.009,7.283l0.329,-1.799l-0.021,-0.308l-0.882,0l0.035,2.107l0.539,0Zm-1.561,0l0.329,-1.799l-0.014,-0.308l-0.889,0l0.035,2.107l0.539,0Z" style="fill:#89ddf3;fill-rule:nonzero;"/><path d="M78.108,8.886c0,-0.575 -0.665,-1.127 -0.931,-1.603c0.637,-0.679 0.469,-1.127 -0.021,-1.127c-0.427,0 -0.889,0.364 -0.889,0.84c0,0.133 0.028,0.258 0.084,0.385c-0.238,0.217 -0.588,0.462 -1.092,0.791l0.168,0.343c0.476,-0.252 0.854,-0.497 1.162,-0.721c0.322,0.441 0.77,0.819 0.77,1.133c0,0.294 -0.371,0.441 -1.75,0.343l-0.014,0.679c1.96,0.063 2.513,-0.476 2.513,-1.064l0,0.001Z" style="fill:#ffcb6b;fill-rule:nonzero;"/><path d="M82.189,9.67l-0.049,-0.386c-0.966,0.274 -1.134,0.127 0.056,-2.743l-0.357,-0.175c-0.364,0.181 -0.84,0.322 -1.267,0.392c0.014,-0.071 0.021,-0.141 0.021,-0.203c0,-0.245 -0.14,-0.386 -0.357,-0.386c-0.42,0.001 -0.84,0.428 -0.84,0.785c0,0.21 0.161,0.336 0.406,0.392c-0.203,0.385 -0.504,0.77 -0.91,1.246l0.273,0.28c0.49,-0.49 0.903,-1.022 1.162,-1.491c0.28,-0.014 0.588,-0.07 0.889,-0.154c-1.155,2.625 -0.672,3.178 0.973,2.443Z" style="fill:#ffcb6b;fill-rule:nonzero;"/><path d="M85.99,7.598c0.056,-0.91 -0.259,-1.281 -0.952,-1.281c-1.155,0 -2.135,1.092 -2.135,2.324c0,1.127 0.917,1.813 2.835,0.917l-0.07,-0.392c-1.526,0.35 -2.016,0.133 -2.016,-0.672c0,-0.813 0.525,-1.533 1.176,-1.533c0.343,0 0.476,0.175 0.476,0.644l0.686,-0.007Z" style="fill:#ffcb6b;fill-rule:nonzero;"/><path d="M89.686,6.688l-2.842,-0.001l0,0.658l2.842,0l0,-0.658l0,0.001Zm0,1.541l-2.842,0l0,0.657l2.842,0l0,-0.657Z" style="fill:#89ddf3;fill-rule:nonzero;"/><path d="M93.109,7.283l0.329,-1.799l-0.021,-0.308l-0.882,0l0.035,2.107l0.539,0Zm-1.561,0l0.329,-1.799l-0.014,-0.308l-0.889,0l0.035,2.107l0.539,0Z" style="fill:#89ddf3;fill-rule:nonzero;"/><path d="M96.49,5.883l0.063,-0.98l-0.819,0l-0.049,0.979l0.805,0l0,0.001Zm1.169,4.011l0.063,-0.588l-1.211,0l0,-2.898l-1.946,0.001l-0.063,0.553l1.225,0.056l0,2.289l-1.211,0l0,0.588l3.143,0l0,-0.001Z" style="fill:#c1e68c;fill-rule:nonzero;"/><path d="M99.311,6.982c0.175,0 0.252,0.105 0.252,0.399l0,2.513l0.553,0l0,-2.751c0.105,-0.105 0.217,-0.161 0.343,-0.161c0.182,0 0.266,0.105 0.266,0.406l0,2.506l0.721,0l0,-2.779c0,-0.518 -0.196,-0.798 -0.595,-0.798c-0.308,0 -0.553,0.168 -0.742,0.378c-0.07,-0.238 -0.231,-0.378 -0.504,-0.378c-0.287,0 -0.532,0.168 -0.721,0.378l-0.028,-0.301l-0.665,0.042c0.028,0.791 0.028,1.89 0.028,3.458l0.721,0c0,-1.148 -0.007,-2.079 -0.021,-2.73c0.126,-0.119 0.259,-0.182 0.392,-0.182Z" style="fill:#c1e68c;fill-rule:nonzero;"/><path d="M102.594,11.119c1.988,-0.098 2.464,-0.896 2.464,-2.17c0,-0.567 -0.007,-2.072 -0.021,-2.457c-0.35,-0.105 -0.7,-0.168 -1.05,-0.168c-1.029,0 -1.89,0.707 -1.89,1.813c0,0.896 0.553,1.449 1.281,1.449c0.371,0 0.665,-0.126 0.896,-0.294c-0.021,0.882 -0.203,1.001 -1.75,1.127l0.07,0.7Zm1.085,-2.143c-0.455,0 -0.812,-0.329 -0.812,-1.022c0,-0.644 0.343,-0.973 0.84,-0.973c0.182,0 0.371,0.035 0.567,0.091l0,1.757c-0.189,0.091 -0.392,0.147 -0.595,0.147Z" style="fill:#c1e68c;fill-rule:nonzero;"/><path d="M108.803,4.707l-3.199,6.286l0.672,0.3l3.199,-6.264l-0.672,-0.322Z" style="fill:#c1e68c;fill-rule:nonzero;"/><path d="M112.541,6.373c-1.827,-0.126 -2.471,0.448 -2.471,1.05c0,0.875 1.862,1.001 1.862,1.498c0,0.273 -0.427,0.434 -1.813,0.343l-0.028,0.665c2.009,0.091 2.653,-0.448 2.653,-1.05c0,-0.875 -1.869,-1.078 -1.869,-1.547c0,-0.245 0.399,-0.399 1.694,-0.288l-0.028,-0.672l0,0.001Z" style="fill:#c1e68c;fill-rule:nonzero;"/><path d="M115.74,5.883l0.063,-0.98l-0.819,0l-0.049,0.979l0.805,0l0,0.001Zm1.169,4.011l0.063,-0.588l-1.211,0l0,-2.898l-1.946,0.001l-0.063,0.553l1.225,0.056l0,2.289l-1.211,0l0,0.588l3.143,0l0,-0.001Z" style="fill:#c1e68c;fill-rule:nonzero;"/><path d="M117.994,11.119c1.988,-0.098 2.464,-0.896 2.464,-2.17c0,-0.567 -0.007,-2.072 -0.021,-2.457c-0.35,-0.105 -0.7,-0.168 -1.05,-0.168c-1.029,0 -1.89,0.707 -1.89,1.813c0,0.896 0.553,1.449 1.281,1.449c0.371,0 0.665,-0.126 0.896,-0.294c-0.021,0.882 -0.203,1.001 -1.75,1.127l0.07,0.7Zm1.085,-2.143c-0.455,0 -0.812,-0.329 -0.812,-1.022c0,-0.644 0.343,-0.973 0.84,-0.973c0.182,0 0.371,0.035 0.567,0.091l0,1.757c-0.189,0.091 -0.392,0.147 -0.595,0.147Z" style="fill:#c1e68c;fill-rule:nonzero;"/><path d="M123.384,9.894l0.049,-0.98l-1.071,0l-0.049,0.98l1.071,0Z" style="fill:#c1e68c;fill-rule:nonzero;"/><path d="M127.941,6.373c-1.827,-0.126 -2.471,0.448 -2.471,1.05c0,0.875 1.862,1.001 1.862,1.498c0,0.273 -0.427,0.434 -1.813,0.343l-0.028,0.665c2.009,0.091 2.653,-0.448 2.653,-1.05c0,-0.875 -1.869,-1.078 -1.869,-1.547c0,-0.245 0.399,-0.399 1.694,-0.288l-0.028,-0.672l0,0.001Z" style="fill:#c1e68c;fill-rule:nonzero;"/><path d="M130.657,9.138l-0.049,0c-0.329,-0.917 -0.623,-1.855 -0.896,-2.758l-0.784,0.056c0.364,1.148 0.777,2.331 1.211,3.486l0.945,0c0.441,-1.155 0.875,-2.352 1.232,-3.514l-0.784,0c-0.266,0.896 -0.553,1.82 -0.875,2.73Z" style="fill:#c1e68c;fill-rule:nonzero;"/><path d="M133.394,11.119c1.988,-0.098 2.464,-0.896 2.464,-2.17c0,-0.567 -0.007,-2.072 -0.021,-2.457c-0.35,-0.105 -0.7,-0.168 -1.05,-0.168c-1.029,0 -1.89,0.707 -1.89,1.813c0,0.896 0.553,1.449 1.281,1.449c0.371,0 0.665,-0.126 0.895,-0.294c-0.02,0.882 -0.203,1.001 -1.75,1.127l0.071,0.7Zm1.084,-2.143c-0.454,0 -0.811,-0.329 -0.811,-1.022c0,-0.644 0.343,-0.973 0.84,-0.973c0.181,0 0.37,0.035 0.566,0.091l0,1.757c-0.189,0.091 -0.392,0.147 -0.595,0.147Z" style="fill:#c1e68c;fill-rule:nonzero;"/><path d="M139.309,7.283l0.328,-1.799l-0.02,-0.308l-0.882,0l0.035,2.107l0.539,0Zm-1.561,0l0.329,-1.799l-0.014,-0.308l-0.889,0l0.035,2.107l0.539,0Z" style="fill:#89ddf3;fill-rule:nonzero;"/><path d="M145.503,9.271c-0.21,0 -0.378,-0.161 -0.378,-0.56c0,-0.833 0.469,-1.743 1.022,-1.743c0.14,0 0.364,0.035 0.595,0.112c-0.098,0.532 -0.259,1.351 -0.329,1.687c-0.308,0.287 -0.672,0.504 -0.91,0.504Zm2.198,0.336l-0.07,-0.378c-0.574,0.175 -0.602,0.112 -0.525,-0.273l0.476,-2.464c-0.364,-0.105 -0.728,-0.154 -1.043,-0.154c-1.33,0 -2.17,1.26 -2.17,2.555c0,0.735 0.315,1.085 0.735,1.085c0.378,0 0.854,-0.322 1.26,-0.714c-0.056,0.728 0.259,0.987 1.337,0.343Z" style="fill:#ffcb6b;fill-rule:nonzero;"/><path d="M151.265,9.453l-0.12,-0.379c-0.994,0.42 -1.512,0.386 -1.617,-0.343c1.463,-1.071 2.177,-2.134 2.177,-3.002c0,-0.504 -0.273,-0.784 -0.714,-0.784c-1.049,0 -2.239,1.68 -2.239,3.598c0,0.063 0,0.126 0.006,0.189c-0.181,0.119 -0.434,0.28 -0.462,0.301l0.182,0.308c0.022,-0.014 0.183,-0.112 0.337,-0.203c0.238,0.973 1.127,1.085 2.45,0.315Zm-0.546,-3.773c0.168,0 0.294,0.119 0.294,0.371c0,0.518 -0.441,1.302 -1.505,2.198c0.048,-1.449 0.714,-2.569 1.21,-2.569l0.001,0Z" style="fill:#ffcb6b;fill-rule:nonzero;"/><path d="M155.037,9.53l-0.049,-0.378c-1.386,0.37 -1.596,0.168 -1.442,-0.497l0.364,-1.645l1.281,0l0.112,-0.581l-1.26,0l0.224,-1.015l-0.567,0.042l-0.602,0.973l-0.419,0l-0.148,0.581l0.644,0l-0.377,1.687c-0.26,1.162 0.434,1.771 2.239,0.833Z" style="fill:#ffcb6b;fill-rule:nonzero;"/><path d="M158.986,6.688l-2.843,-0.001l0,0.658l2.843,0l0,-0.658l0,0.001Zm0,1.541l-2.843,0l0,0.657l2.843,0l0,-0.657Z" style="fill:#89ddf3;fill-rule:nonzero;"/><path d="M162.408,7.283l0.329,-1.799l-0.021,-0.308l-0.882,0l0.035,2.107l0.539,0Zm-1.561,0l0.329,-1.799l-0.014,-0.308l-0.889,0l0.035,2.107l0.539,0Z" style="fill:#89ddf3;fill-rule:nonzero;"/><path d="M164.152,5.554l-0.001,0.636l1.428,0l0,2.233c0,0.757 -0.14,0.91 -1.687,0.84l0,0.7c1.883,0.042 2.499,-0.427 2.499,-1.547l0,-2.863l-2.239,0l0,0.001Z" style="fill:#c1e68c;fill-rule:nonzero;"/><path d="M169.002,9.999c0.931,-0.001 1.701,-0.764 1.701,-1.925c0,-1.135 -0.602,-1.772 -1.477,-1.772c-0.924,0 -1.701,0.798 -1.701,1.932c0,1.127 0.616,1.764 1.477,1.764l0,0.001Zm0.14,-0.63c-0.504,0 -0.826,-0.434 -0.826,-1.281c0,-0.763 0.308,-1.148 0.777,-1.148c0.504,0 0.826,0.434 0.826,1.274c0,0.77 -0.308,1.155 -0.777,1.155Z" style="fill:#c1e68c;fill-rule:nonzero;"/><path d="M174.287,9.978l0.077,-0.651c-1.54,-0.035 -2.065,-0.266 -2.149,-0.966l2.247,-0.063c0.126,-1.211 -0.343,-1.981 -1.323,-1.981c-0.917,0 -1.701,0.826 -1.701,1.897c0,1.134 0.595,1.785 2.849,1.764Zm-1.287,-3.024c0.483,0 0.7,0.343 0.721,0.896c-0.434,0.014 -1.142,0.035 -1.512,0.049c0.035,-0.651 0.315,-0.945 0.791,-0.945Z" style="fill:#c1e68c;fill-rule:nonzero;"/><path d="M178.249,9.894l0.063,-0.588l-1.078,0l0,-4.305l-1.757,0l-0.07,0.553l1.043,0.056l0,3.696l-1.078,0l0,0.588l2.877,0Z" style="fill:#c1e68c;fill-rule:nonzero;"/><path d="M186.012,9.894l0.07,-0.672l-1.96,0l0,-3.669l-0.805,0l0,4.34l2.695,0.001Z" style="fill:#c1e68c;fill-rule:nonzero;"/><path d="M188.252,9.999c0.931,-0.001 1.701,-0.764 1.701,-1.925c0,-1.135 -0.602,-1.772 -1.477,-1.772c-0.924,0 -1.701,0.798 -1.701,1.932c0,1.127 0.616,1.764 1.477,1.764l0,0.001Zm0.14,-0.63c-0.504,0 -0.826,-0.434 -0.826,-1.281c0,-0.763 0.308,-1.148 0.777,-1.148c0.504,0 0.826,0.434 0.826,1.274c0,0.77 -0.308,1.155 -0.777,1.155Z" style="fill:#c1e68c;fill-rule:nonzero;"/><path d="M191.71,6.982c0.175,0 0.252,0.105 0.252,0.399l0,2.513l0.553,0l0,-2.751c0.105,-0.105 0.217,-0.161 0.343,-0.161c0.182,0 0.266,0.105 0.266,0.406l0,2.506l0.721,0l0,-2.779c0,-0.518 -0.196,-0.798 -0.595,-0.798c-0.308,0 -0.553,0.168 -0.742,0.378c-0.07,-0.238 -0.231,-0.378 -0.504,-0.378c-0.287,0 -0.532,0.168 -0.721,0.378l-0.028,-0.301l-0.665,0.042c0.028,0.791 0.028,1.89 0.028,3.458l0.721,0c0,-1.148 -0.007,-2.079 -0.021,-2.73c0.126,-0.119 0.259,-0.182 0.392,-0.182Z" style="fill:#c1e68c;fill-rule:nonzero;"/><path d="M195.735,9.985c1.008,0 1.911,-0.756 1.911,-2.009c0,-1.015 -0.532,-1.659 -1.267,-1.659c-0.378,0 -0.686,0.168 -0.917,0.378l0,-1.778l-0.777,0.07l0,4.809c0.322,0.126 0.665,0.189 1.05,0.189Zm0.28,-0.672c-0.196,-0.001 -0.371,-0.035 -0.553,-0.099l0,-2.051c0.189,-0.133 0.399,-0.209 0.602,-0.209c0.476,0 0.812,0.406 0.812,1.211c0,0.791 -0.329,1.148 -0.861,1.148Z" style="fill:#c1e68c;fill-rule:nonzero;"/><path d="M199.76,9.383c-0.357,-0.001 -0.588,-0.182 -0.588,-0.49c0,-0.386 0.287,-0.616 1.365,-0.505c0.007,0.288 0.007,0.519 0.021,0.722c-0.245,0.168 -0.532,0.273 -0.798,0.273Zm0.896,0.532l0.714,-0.036c-0.035,-0.483 -0.063,-1.035 -0.063,-1.715c0,-1.358 -0.525,-1.791 -2.625,-1.826l-0.077,0.657c1.498,0.049 1.883,0.21 1.925,0.883c-1.47,-0.064 -2.128,0.496 -2.128,1.196c0,0.567 0.427,0.91 1.05,0.91c0.504,0.001 0.875,-0.23 1.141,-0.489c0.021,0.167 0.056,0.392 0.063,0.419l0,0.001Z" style="fill:#c1e68c;fill-rule:nonzero;"/><path d="M204.912,9.894l0.063,-0.588l-1.057,0c-0.014,-0.742 -0.021,-1.33 -0.035,-1.855c0.392,-0.189 0.875,-0.316 1.477,-0.35l-0.035,-0.826c-0.658,0.084 -1.155,0.371 -1.47,0.735c-0.014,-0.175 -0.056,-0.567 -0.063,-0.602l-1.442,0l-0.063,0.553l0.826,0.056c0.014,0.616 0.021,1.344 0.035,2.289l-0.847,0l0,0.588l2.611,0Z" style="fill:#c1e68c;fill-rule:nonzero;"/><path d="M207.628,9.348c-0.483,0 -0.826,-0.378 -0.826,-1.204c0,-0.77 0.371,-1.162 0.903,-1.162c0.154,0 0.322,0.035 0.497,0.091c0,0.84 0.007,1.519 0.021,2.058c-0.168,0.133 -0.364,0.217 -0.595,0.217Zm0.679,0.567l0.721,-0.042c-0.035,-0.77 -0.049,-1.841 -0.049,-3.472l0,-1.484l-0.777,0.07l0,1.337c-0.056,-0.007 -0.105,-0.007 -0.161,-0.007c-1.106,0 -2.009,0.735 -2.009,2.023c0,1.035 0.539,1.645 1.274,1.645c0.399,-0.001 0.721,-0.19 0.959,-0.421l0.042,0.35l0,0.001Z" style="fill:#c1e68c;fill-rule:nonzero;"/><path d="M211.352,9.999c0.931,-0.001 1.701,-0.764 1.701,-1.925c0,-1.135 -0.602,-1.772 -1.477,-1.772c-0.924,0 -1.701,0.798 -1.701,1.932c0,1.127 0.616,1.764 1.477,1.764l0,0.001Zm0.14,-0.63c-0.504,0 -0.826,-0.434 -0.826,-1.281c0,-0.763 0.308,-1.148 0.777,-1.148c0.504,0 0.826,0.434 0.826,1.274c0,0.77 -0.308,1.155 -0.777,1.155Z" style="fill:#c1e68c;fill-rule:nonzero;"/><path d="M216.308,7.283l0.329,-1.799l-0.021,-0.308l-0.882,0l0.035,2.107l0.539,0Zm-1.561,0l0.329,-1.799l-0.014,-0.308l-0.889,0l0.035,2.107l0.539,0Z" style="fill:#89ddf3;fill-rule:nonzero;"/><path d="M218.219,10.062l2.331,-1.911l0,-0.651l-2.296,-1.897l-0.434,0.56l2.03,1.624l0,0.077l-2.051,1.652l0.42,0.546Z" style="fill:#89ddf3;fill-rule:nonzero;"/><rect x="15" y="0" width="1" height="16" style="fill:#34454c;"/><g><path d="M6.901,9.854l0.054,-0.558l-0.9,0l0,-3.282l-0.642,0.054l0,0.438l-0.924,0.096l0.012,0.486l0.912,-0.024l0,2.232l-1.008,0l0,0.558l2.496,0Z" style="fill:#9fb4bc;fill-rule:nonzero;"/><path d="M8.257,9.986c1.314,-0.594 1.902,-1.428 1.902,-2.466c0,-0.954 -0.516,-1.458 -1.272,-1.458c-0.702,0 -1.308,0.486 -1.308,1.278c0,1.002 1.05,1.374 1.896,0.768c-0.138,0.528 -0.54,0.936 -1.494,1.32l0.276,0.558Zm-0.06,-2.712c0,-0.444 0.27,-0.684 0.624,-0.684c0.408,0 0.714,0.306 0.714,0.996l0,0.12c-0.708,0.438 -1.338,0.24 -1.338,-0.432Z" style="fill:#9fb4bc;fill-rule:nonzero;"/></g></svg>