<svg xmlns="http://www.w3.org/2000/svg" xmlns:xlink="http://www.w3.org/1999/xlink" viewBox="0 0 227 16" fill-rule="evenodd" stroke-linejoin="round" stroke-miterlimit="2" xmlns:v="https://vecta.io/nano"><path d="M227 .8a.8.8 0 0 0-.795-.8H.795A.8.8 0 0 0 0 .8v14.4a.8.8 0 0 0 .795.8h225.4a.8.8 0 0 0 .795-.8V.8z" fill="#253238"/><g fill-rule="nonzero"><path d="M24.536 5.98L22 7.33v.884l2.47 1.338.377-.728-2.12-1.014v-.084l2.12-1.034-.312-.715z" fill="#89ddf3"/><path d="M27.774 5.784l.06-.975h-.858l-.06.974h.858zm1 4.148l.078-.657h-1.06v-2.95h-1.834l-.07.63 1.086.052v2.27H25.9v.656h2.855zm2.242-2.998c.4 0 .533.2.533.852V9.93h.82V7.467c0-.124-.007-.234-.02-.338a1.14 1.14 0 0 1 .644-.195c.4 0 .533.188.533.85V9.93h.82V7.467c0-.832-.33-1.248-.968-1.248-.5 0-.86.234-1.138.507-.156-.338-.436-.507-.846-.507-.48 0-.826.214-1.105.474l-.052-.4-.754.046.1 3.58h.82l-.046-2.788c.202-.13.417-.208.67-.208zm4.824 4.284c2.035-.124 2.497-1.086 2.497-2.4l-.032-2.424a3.58 3.58 0 0 0-1.028-.156c-1.092 0-2 .74-2 1.872 0 .9.592 1.488 1.34 1.488.358 0 .657-.117.884-.267-.026.878-.208.93-1.768 1.086l.097.8zM36.943 8.9c-.462 0-.852-.338-.852-1.06 0-.598.293-.884.794-.884.195 0 .403.033.617.1v1.75a1.58 1.58 0 0 1-.559.104z" fill="#eb6f76"/><path d="M43.277 5.706l.312-.95-.982.06-.234.942.904-.052zm.4 3.816l-.1-.396c-1.15.253-1.235.227-1.053-.534l.533-2.307-.78.06-.774.877.5.332-.3 1.196c-.3 1.2.34 1.722 1.964.773zm1.54-.267c-.247-.001-.4-.228-.4-.644 0-.76.448-1.716.975-1.716.156 0 .423.045.715.136l-.325 1.67c-.33.306-.715.553-.956.553zm2.44.324l-.098-.396c-.715.136-.72.136-.663-.175l.514-2.626.013-.02h-.013l.3-1.52-.8.078-.254 1.306-.247-.006c-1.5 0-2.386 1.326-2.386 2.62 0 .793.358 1.196.806 1.196.377 0 .84-.3 1.242-.682-.04.7.364.936 1.587.227z" fill="#ffcb6b"/><g fill="#89ddf3"><use xlink:href="#B"/><use xlink:href="#C"/></g><path d="M58.727 6.252c-1.717-.098-2.315.585-2.315 1.163 0 .93 1.704 1.06 1.704 1.52 0 .286-.397.357-1.594.293l-.026.773c1.867.02 2.458-.572 2.458-1.157 0-.968-1.7-1.144-1.7-1.586 0-.253.4-.33 1.5-.234l-.026-.773zm2.88-.468l.058-.975h-.858l-.06.974h.86zm.988 4.148l.078-.657h-1.06v-2.95H59.78l-.07.63 1.086.052v2.27H59.74v.656h2.855zm1.066 1.286c2.036-.124 2.497-1.086 2.497-2.4l-.032-2.424c-.37-.1-.715-.156-1.028-.156-1.092 0-2 .74-2 1.872 0 .9.6 1.488 1.34 1.488a1.6 1.6 0 0 0 .885-.267c-.026.878-.2.93-1.77 1.086l.097.8zM64.774 8.9c-.46 0-.852-.338-.852-1.06 0-.598.293-.884.794-.884.195 0 .403.033.618.1v1.75a1.59 1.59 0 0 1-.56.104z" fill="#c1e68c"/><use xlink:href="#C" x="14.814" fill="#89ddf3"/><path d="M75.96 8.845c0-.598-.65-1.125-.937-1.567.7-.76.514-1.17.026-1.17-.422 0-1.033.292-1.033.896 0 .15.04.3.097.436-.228.228-.566.494-1.008.826l.22.325a10.51 10.51 0 0 0 1.054-.735c.33.436.78.793.78 1.112 0 .3-.416.344-1.593.28l-.046.754c1.828.02 2.44-.54 2.44-1.157zm3.894.855l-.065-.396c-1.028.247-1.158.175.02-2.776l-.312-.188c-.286.143-.767.292-1.222.383a1.25 1.25 0 0 0 .019-.214c0-.28-.162-.423-.383-.423-.482 0-.97.462-.97.858 0 .247.188.384.48.442-.215.384-.533.793-.975 1.326l.305.312c.533-.56.976-1.118 1.25-1.612.24-.013.5-.058.754-.123-1.086 2.554-.76 3.23 1.1 2.4zm3.576-2.168c.072-.955-.2-1.313-.878-1.313-1.118 0-2.126 1.144-2.126 2.418 0 1.118.82 1.924 2.77.942l-.1-.4c-1.534.266-1.88.038-1.88-.73 0-.8.475-1.527 1.053-1.527.313 0 .4.195.404.617l.747-.02z" fill="#ffcb6b"/><g fill="#89ddf3"><use xlink:href="#B" x="35.822"/><use xlink:href="#C" x="35.824"/></g><path d="M94.056 5.784l.058-.975h-.858l-.06.974h.86zm.988 4.148l.078-.657h-1.06v-2.95h-1.834l-.07.63 1.086.052v2.27H92.2v.656h2.855zm2.243-2.998c.4 0 .534.2.534.852V9.93h.82V7.467c0-.124-.007-.234-.02-.338a1.14 1.14 0 0 1 .644-.195c.4 0 .533.188.533.85V9.93h.82V7.467c0-.832-.332-1.248-.97-1.248-.5 0-.858.234-1.138.507-.156-.338-.436-.507-.845-.507-.482 0-.826.214-1.106.474l-.052-.4-.754.046.1 3.58h.82l-.045-2.788c.2-.13.416-.208.67-.208zm4.825 4.284c2.036-.124 2.497-1.086 2.497-2.4l-.032-2.424c-.37-.1-.715-.156-1.028-.156-1.092 0-2 .74-2 1.872 0 .9.6 1.488 1.34 1.488a1.6 1.6 0 0 0 .885-.267c-.026.878-.2.93-1.77 1.086l.097.8zm1.112-2.308c-.46 0-.85-.338-.85-1.06 0-.598.292-.884.793-.884.195 0 .403.033.618.1v1.75a1.59 1.59 0 0 1-.56.104zM108 4.737l-2.972 6.377.735.15 2.94-6.305-.702-.22zm3.1 1.515c-1.717-.098-2.315.585-2.315 1.163 0 .93 1.703 1.06 1.703 1.52 0 .286-.396.357-1.593.293l-.026.773c1.866.02 2.458-.572 2.458-1.157 0-.968-1.7-1.144-1.7-1.586 0-.253.4-.33 1.5-.234l-.026-.773zm2.88-.468l.06-.975h-.86l-.058.974h.858zm1 4.148l.078-.657h-1.06v-2.95h-1.834l-.072.63 1.086.052v2.27h-1.053v.656h2.855zm1.065 1.286c2.035-.124 2.497-1.086 2.497-2.4l-.032-2.424a3.58 3.58 0 0 0-1.028-.156c-1.092 0-2 .74-2 1.872 0 .9.592 1.488 1.34 1.488.357 0 .657-.117.884-.267-.026.878-.208.93-1.77 1.086l.098.8zm1.112-2.308c-.462 0-.852-.338-.852-1.06 0-.598.293-.884.793-.884.196 0 .404.033.618.1v1.75a1.58 1.58 0 0 1-.559.104zm3.733 1.02l.053-1.04h-1.106l-.052 1.04h1.105zm3.5-3.678c-1.717-.098-2.315.585-2.315 1.163 0 .93 1.704 1.06 1.704 1.52 0 .286-.397.357-1.593.293l-.026.773c1.866.02 2.458-.572 2.458-1.157 0-.968-1.7-1.144-1.7-1.586 0-.253.4-.33 1.5-.234l-.026-.773zm2.563 2.886h-.06l-.87-2.854-.826.078 1.184 3.608h1.02l1.196-3.646h-.832l-.813 2.814zm2.725 2.08c2.035-.124 2.497-1.086 2.497-2.4l-.033-2.424c-.37-.1-.715-.156-1.027-.156-1.093 0-2 .74-2 1.872 0 .9.592 1.488 1.34 1.488a1.6 1.6 0 0 0 .885-.267c-.026.878-.208.93-1.77 1.086l.098.8zm1.1-2.308c-.46 0-.85-.338-.85-1.06 0-.598.292-.884.793-.884.195 0 .403.033.618.1v1.75a1.59 1.59 0 0 1-.56.104z" fill="#c1e68c"/><path d="M135.725 7.15l.422-1.892-.026-.22h-.962V7.15h.566zm-1.58 0l.423-1.892-.026-.22h-.962V7.15h.565z" fill="#89ddf3"/><path d="M140.3 9.235c-.208 0-.344-.17-.344-.56 0-.787.422-1.742.943-1.742.15 0 .416.045.695.13l-.318 1.645c-.35.305-.742.526-.976.526zm2.465.345l-.104-.397c-.715.143-.728.143-.663-.175l.513-2.62a4.12 4.12 0 0 0-.982-.136c-1.482 0-2.38 1.358-2.38 2.684 0 .74.34 1.098.755 1.098.37 0 .845-.3 1.268-.682-.052.7.35.936 1.593.227zm3.218-.13l-.156-.4c-.995.475-1.398.35-1.43-.552 1.216-.95 2.003-1.885 2.003-2.854 0-.552-.28-.82-.683-.82-.962 0-2.074 1.528-2.133 3.608l-.54.364.215.364.345-.22c.136 1.183 1 1.404 2.38.5zm-.644-3.757c.123 0 .24.098.24.345 0 .513-.4 1.157-1.17 1.86.1-1.417.56-2.204.93-2.204zm3.86 3.84l-.078-.396c-1.3.312-1.502.162-1.352-.5l.377-1.645h1.184l.117-.63h-1.158l.247-1.092-.585.032-.728 1.06h-.37l-.17.63h.67L146.96 8.7c-.267 1.2.592 1.885 2.23.845z" fill="#ffcb6b"/><g fill="#89ddf3"><use xlink:href="#B" x="101.648"/><path d="M156.565 7.15l.423-1.892-.026-.22H156V7.15h.565zm-1.58 0l.423-1.892-.026-.22h-.962V7.15h.565z"/></g><path d="M158.237 5.46v.708h1.222V8.37c0 .787-.065.917-1.456.826v.806c1.7.052 2.3-.618 2.3-1.638V5.458h-2.067zm4.545 4.575c.956-.001 1.8-.82 1.8-2 0-1.137-.644-1.807-1.515-1.807-.962 0-1.8.82-1.8 2 0 1.137.637 1.806 1.515 1.806zm.176-.695c-.54 0-.885-.442-.885-1.293 0-.767.286-1.13.813-1.13.546 0 .9.442.9 1.293 0 .767-.293 1.13-.82 1.13zm5.228.682l.1-.73c-1.36-.032-1.932-.208-2.062-.916l2.146-.065c.124-1.28-.325-2.093-1.287-2.093-.904 0-1.698.87-1.698 1.95 0 1.177.592 1.885 2.8 1.852zm-1.28-3.06c.448 0 .624.3.656.813l-1.365.045c.032-.67.266-.858.7-.858zm4.772 2.968l.078-.657h-.917V4.88h-1.684l-.08.63.943.052v3.712h-.9v.656h2.57zm1.638-2.78l.416-1.892-.02-.22h-.97V7.15h.572zm3.577-.898c-1.717-.098-2.315.585-2.315 1.163 0 .93 1.703 1.06 1.703 1.52 0 .286-.396.357-1.593.293l-.026.773c1.867.02 2.458-.572 2.458-1.157 0-.968-1.7-1.144-1.7-1.586 0-.253.4-.33 1.5-.234l-.026-.773zm3.225 2.944v.806c2.035.065 2.8-.656 2.8-1.423 0-1.06-1.983-1.417-1.983-2 0-.33.305-.46 1.697-.37l-.06-.813c-1.86-.097-2.5.63-2.5 1.36 0 1.066 1.977 1.34 1.977 1.995 0 .364-.487.546-1.93.455zm5.392-3.412l.058-.975h-.858l-.06.974h.86zm.988 4.148l.078-.657h-1.06v-2.95h-1.834l-.07.63 1.086.052v2.27h-1.054v.656h2.855zm1.065 1.286c2.036-.124 2.497-1.086 2.497-2.4l-.032-2.424c-.37-.1-.715-.156-1.027-.156-1.093 0-2 .74-2 1.872 0 .9.6 1.488 1.34 1.488a1.6 1.6 0 0 0 .885-.267c-.026.878-.208.93-1.77 1.086l.097.8zm1.112-2.308c-.46 0-.85-.338-.85-1.06 0-.598.292-.884.793-.884.195 0 .403.033.618.1v1.75a1.59 1.59 0 0 1-.56.104zm4.09-1.976c.4 0 .643.2.643.852V9.93h.826V7.5c0-.9-.45-1.28-1.105-1.28-.533 0-.904.22-1.197.48l-.052-.397-.754.046.1 3.58h.82l-.045-2.775c.227-.143.48-.22.774-.22zm3.778 2.418c-.332 0-.52-.188-.52-.468 0-.332.156-.54 1.25-.442l.026.65c-.254.17-.533.26-.754.26zm.864.604l.742-.045-.072-1.76c0-1.4-.526-1.905-2.6-1.905l-.084.728c1.4.04 1.807.2 1.866.832-1.437-.04-2.042.592-2.042 1.28 0 .585.436.936 1.04.936a1.44 1.44 0 0 0 1.08-.475l.07.4zm4.006.027l.1-.73c-.884-.02-1.183-.1-1.183-.637V6.992h1.118v-.67h-1.118v-1.06l-.826.07v.988h-.566l-.078.67h.644v1.77c0 .904.474 1.255 1.918 1.222zm3.362-.033l.748-.046-.085-3.58h-.826l.046 2.775a1.42 1.42 0 0 1-.774.221c-.4 0-.644-.188-.644-.85V6.3l-.82.052v2.405c0 .9.45 1.28 1.105 1.28.527 0 .898-.22 1.2-.48l.06.397zm4.168-.02l.078-.657h-.923l-.04-1.898c.396-.17.84-.28 1.34-.312l-.058-.884c-.585.097-1.034.4-1.32.76l-.085-.617h-1.378l-.072.63.754.052.04 2.27h-.76v.656h2.425zm3.902.092l.1-.73c-1.36-.032-1.932-.208-2.062-.916l2.146-.065c.124-1.28-.325-2.093-1.287-2.093-.904 0-1.697.87-1.697 1.95 0 1.177.6 1.885 2.8 1.852zm-1.28-3.06c.448 0 .624.3.656.813l-1.365.045c.032-.67.267-.858.7-.858z" fill="#c1e68c"/><path d="M216.468 7.15l.422-1.892-.026-.22h-.962V7.15h.566zm-1.58 0l.422-1.892-.026-.22h-.962V7.15h.566zm3.576 2.4L221 8.208v-.884l-2.47-1.34-.384.728 2.12 1.014v.085l-2.12 1.033.32.715z" fill="#89ddf3"/></g><path d="M15 0h1v16h-1z" fill="#34454c"/><path d="M7.386 9.854l.05-.558h-.86V6.014l-.613.054v.438l-.884.096.012.486.872-.024v2.232H5v.558h2.386zm1.296.132C9.938 9.392 10.5 8.558 10.5 7.52c0-.954-.493-1.458-1.216-1.458a1.22 1.22 0 0 0-1.25 1.278c0 1.002 1.004 1.374 1.812.768-.132.528-.516.936-1.428 1.32l.264.558zm-.057-2.712c0-.444.258-.684.596-.684.4 0 .683.306.683.996v.12c-.677.438-1.28.24-1.28-.432z" fill-rule="nonzero" fill="#9fb4bc"/><defs ><path id="B" d="M51.36 6.603h-2.965v.747h2.965v-.747zm0 1.514h-2.965v.748h2.965v-.748z"/><path id="C" d="M54.916 7.15l.423-1.892-.026-.22h-.962V7.15h.565zm-1.58 0l.423-1.892-.026-.22h-.963V7.15h.566z"/></defs></svg>