<?xml version="1.0" encoding="UTF-8" standalone="no"?><!DOCTYPE svg PUBLIC "-//W3C//DTD SVG 1.1//EN" "http://www.w3.org/Graphics/SVG/1.1/DTD/svg11.dtd"><svg width="100%" height="100%" viewBox="0 0 351 15" version="1.1" xmlns="http://www.w3.org/2000/svg" xmlns:xlink="http://www.w3.org/1999/xlink" xml:space="preserve" xmlns:serif="http://www.serif.com/" style="fill-rule:evenodd;clip-rule:evenodd;stroke-linejoin:round;stroke-miterlimit:2;"><rect id="background" x="0" y="0" width="351" height="15" style="fill:#474747;"/><path id="short" d="M0,0l1,0l0,14.016l4,-0.016l0,-2.5l1,0l0,2.5l4.021,0l0,-5l1,0l0,5l3.979,0l0,-2.5l1,0l0,2.5l4,0l0,-5l1,0l0,5l4,0l0,-2.5l1,0l0,2.5l4,0l0,-5l1,0l0,5l4,0l0,-2.5l1,0l0,2.5l4,0l0,-5l1,0l0,5l4,0l0,-2.5l1,0l0,2.5l4,0l0,1l-25,0l-4,0l-1,0l-4,0l-1,0l-3.979,0l-1,0l-4.021,0l-1,0l-5,0l0,-15Zm51,15l-1,0l0,-15l1,0l0,15Z" style="fill:#666;"/><path d="M4.063,5.001c0,-0.12 0.001,-0.253 0.003,-0.399c0.002,-0.146 0.012,-0.291 0.031,-0.437c0.019,-0.146 0.046,-0.288 0.081,-0.427c0.036,-0.139 0.088,-0.26 0.156,-0.365c0.069,-0.104 0.156,-0.188 0.26,-0.253c0.104,-0.065 0.231,-0.097 0.381,-0.097c0.15,0 0.277,0.032 0.381,0.097c0.105,0.065 0.191,0.149 0.26,0.253c0.069,0.105 0.121,0.226 0.156,0.365c0.036,0.139 0.063,0.281 0.081,0.427c0.019,0.146 0.03,0.291 0.032,0.437c0.002,0.146 0.003,0.279 0.003,0.399c0,0.185 -0.005,0.392 -0.016,0.621c-0.01,0.229 -0.044,0.445 -0.1,0.646c-0.056,0.201 -0.147,0.371 -0.272,0.51c-0.125,0.139 -0.3,0.208 -0.525,0.208c-0.225,0 -0.4,-0.069 -0.525,-0.208c-0.125,-0.139 -0.216,-0.309 -0.272,-0.51c-0.056,-0.201 -0.089,-0.417 -0.1,-0.646c-0.01,-0.229 -0.015,-0.436 -0.015,-0.621Zm-0.563,0.007c0,0.181 0.004,0.368 0.013,0.562c0.008,0.195 0.029,0.384 0.062,0.57c0.033,0.185 0.081,0.359 0.144,0.524c0.062,0.164 0.148,0.308 0.256,0.433c0.108,0.125 0.245,0.224 0.409,0.295c0.165,0.072 0.362,0.108 0.591,0.108c0.233,0 0.431,-0.036 0.594,-0.108c0.162,-0.071 0.298,-0.17 0.406,-0.295c0.109,-0.125 0.194,-0.269 0.256,-0.433c0.063,-0.165 0.111,-0.339 0.144,-0.524c0.034,-0.186 0.054,-0.375 0.063,-0.57c0.008,-0.194 0.012,-0.381 0.012,-0.562c0,-0.18 -0.004,-0.368 -0.012,-0.562c-0.009,-0.194 -0.029,-0.384 -0.063,-0.569c-0.033,-0.185 -0.081,-0.361 -0.144,-0.528c-0.062,-0.166 -0.147,-0.312 -0.256,-0.437c-0.108,-0.125 -0.245,-0.225 -0.409,-0.299c-0.165,-0.074 -0.362,-0.111 -0.591,-0.111c-0.229,0 -0.426,0.037 -0.591,0.111c-0.164,0.074 -0.301,0.174 -0.409,0.299c-0.108,0.125 -0.194,0.271 -0.256,0.437c-0.063,0.167 -0.111,0.343 -0.144,0.528c-0.033,0.185 -0.054,0.375 -0.062,0.569c-0.009,0.194 -0.013,0.382 -0.013,0.562Z" style="fill:#a0a0a0;fill-rule:nonzero;"/><path id="short1" serif:id="short" d="M71,15l-1,0l-4,0l-1,0l-3.979,0l-1,0l-4.021,0l-1,0l-5,0l0,-0.98l5,-0.02l0,-2.5l1,0l0,2.5l4.021,0l0,-5l1,0l0,5l3.979,0l0,-2.5l1,0l0,2.5l4,0l0,-5l1,0l0,5l4,0l0,-2.5l1,0l0,2.5l4,0l0,-5l1,0l0,5l4,0l0,-2.5l1,0l0,2.5l4,0l0,-5l1,0l0,5l4,0l0,-2.5l1,0l0,2.5l4,0l0,1l-25,0l-4,0Zm29,-15l1,0l0,15l-1,0l0,-15Z" style="fill:#666;"/><g><path d="M56.351,7.424l0,-4.922l-0.446,0c-0.032,0.185 -0.092,0.338 -0.179,0.458c-0.087,0.121 -0.193,0.216 -0.319,0.285c-0.126,0.069 -0.267,0.117 -0.423,0.142c-0.156,0.026 -0.316,0.039 -0.481,0.039l0,0.472l1.264,0l0,3.526l0.584,0Z" style="fill:#a0a0a0;fill-rule:nonzero;"/><path d="M58.633,5.001c0,-0.12 0.001,-0.253 0.003,-0.399c0.003,-0.146 0.014,-0.291 0.035,-0.437c0.02,-0.146 0.05,-0.288 0.089,-0.427c0.039,-0.139 0.096,-0.26 0.172,-0.365c0.075,-0.104 0.17,-0.188 0.285,-0.253c0.115,-0.065 0.254,-0.097 0.419,-0.097c0.165,0 0.305,0.032 0.419,0.097c0.115,0.065 0.21,0.149 0.286,0.253c0.075,0.105 0.132,0.226 0.171,0.365c0.039,0.139 0.069,0.281 0.09,0.427c0.02,0.146 0.032,0.291 0.034,0.437c0.002,0.146 0.003,0.279 0.003,0.399c0,0.185 -0.005,0.392 -0.017,0.621c-0.011,0.229 -0.048,0.445 -0.11,0.646c-0.062,0.201 -0.161,0.371 -0.299,0.51c-0.137,0.139 -0.329,0.208 -0.577,0.208c-0.247,0 -0.44,-0.069 -0.577,-0.208c-0.137,-0.139 -0.237,-0.309 -0.299,-0.51c-0.062,-0.201 -0.098,-0.417 -0.11,-0.646c-0.011,-0.229 -0.017,-0.436 -0.017,-0.621Zm-0.619,0.007c0,0.181 0.005,0.368 0.014,0.562c0.009,0.195 0.032,0.384 0.069,0.57c0.037,0.185 0.089,0.359 0.158,0.524c0.069,0.164 0.163,0.308 0.282,0.433c0.119,0.125 0.269,0.224 0.45,0.295c0.181,0.072 0.397,0.108 0.649,0.108c0.257,0 0.474,-0.036 0.653,-0.108c0.179,-0.071 0.328,-0.17 0.447,-0.295c0.119,-0.125 0.213,-0.269 0.281,-0.433c0.069,-0.165 0.122,-0.339 0.158,-0.524c0.037,-0.186 0.06,-0.375 0.069,-0.57c0.009,-0.194 0.014,-0.381 0.014,-0.562c0,-0.18 -0.005,-0.368 -0.014,-0.562c-0.009,-0.194 -0.032,-0.384 -0.069,-0.569c-0.036,-0.185 -0.089,-0.361 -0.158,-0.528c-0.068,-0.166 -0.162,-0.312 -0.281,-0.437c-0.119,-0.125 -0.269,-0.225 -0.45,-0.299c-0.181,-0.074 -0.398,-0.111 -0.65,-0.111c-0.252,0 -0.468,0.037 -0.649,0.111c-0.181,0.074 -0.331,0.174 -0.45,0.299c-0.119,0.125 -0.213,0.271 -0.282,0.437c-0.069,0.167 -0.121,0.343 -0.158,0.528c-0.037,0.185 -0.06,0.375 -0.069,0.569c-0.009,0.194 -0.014,0.382 -0.014,0.562Z" style="fill:#a0a0a0;fill-rule:nonzero;"/><path d="M62.454,5.001c0,-0.12 0.001,-0.253 0.003,-0.399c0.002,-0.146 0.014,-0.291 0.034,-0.437c0.021,-0.146 0.051,-0.288 0.09,-0.427c0.039,-0.139 0.096,-0.26 0.172,-0.365c0.075,-0.104 0.17,-0.188 0.285,-0.253c0.114,-0.065 0.254,-0.097 0.419,-0.097c0.165,0 0.305,0.032 0.419,0.097c0.115,0.065 0.21,0.149 0.285,0.253c0.076,0.105 0.133,0.226 0.172,0.365c0.039,0.139 0.069,0.281 0.089,0.427c0.021,0.146 0.032,0.291 0.035,0.437c0.002,0.146 0.003,0.279 0.003,0.399c0,0.185 -0.006,0.392 -0.017,0.621c-0.011,0.229 -0.048,0.445 -0.11,0.646c-0.062,0.201 -0.161,0.371 -0.299,0.51c-0.137,0.139 -0.33,0.208 -0.577,0.208c-0.248,0 -0.44,-0.069 -0.577,-0.208c-0.138,-0.139 -0.237,-0.309 -0.299,-0.51c-0.062,-0.201 -0.099,-0.417 -0.11,-0.646c-0.012,-0.229 -0.017,-0.436 -0.017,-0.621Zm-0.619,0.007c0,0.181 0.005,0.368 0.014,0.562c0.009,0.195 0.032,0.384 0.069,0.57c0.036,0.185 0.089,0.359 0.158,0.524c0.068,0.164 0.162,0.308 0.281,0.433c0.119,0.125 0.27,0.224 0.45,0.295c0.181,0.072 0.398,0.108 0.65,0.108c0.256,0 0.474,-0.036 0.653,-0.108c0.178,-0.071 0.327,-0.17 0.446,-0.295c0.119,-0.125 0.213,-0.269 0.282,-0.433c0.069,-0.165 0.121,-0.339 0.158,-0.524c0.037,-0.186 0.06,-0.375 0.069,-0.57c0.009,-0.194 0.014,-0.381 0.014,-0.562c0,-0.18 -0.005,-0.368 -0.014,-0.562c-0.009,-0.194 -0.032,-0.384 -0.069,-0.569c-0.037,-0.185 -0.089,-0.361 -0.158,-0.528c-0.069,-0.166 -0.163,-0.312 -0.282,-0.437c-0.119,-0.125 -0.269,-0.225 -0.45,-0.299c-0.181,-0.074 -0.397,-0.111 -0.649,-0.111c-0.252,0 -0.469,0.037 -0.65,0.111c-0.18,0.074 -0.331,0.174 -0.45,0.299c-0.119,0.125 -0.213,0.271 -0.281,0.437c-0.069,0.167 -0.122,0.343 -0.158,0.528c-0.037,0.185 -0.06,0.375 -0.069,0.569c-0.009,0.194 -0.014,0.382 -0.014,0.562Z" style="fill:#a0a0a0;fill-rule:nonzero;"/></g><path id="short2" serif:id="short" d="M121,15l-1,0l-4,0l-1,0l-3.979,0l-1,0l-4.021,0l-1,0l-5,0l0,-0.98l5,-0.02l0,-2.5l1,0l0,2.5l4.021,0l0,-5l1,0l0,5l3.979,0l0,-2.5l1,0l0,2.5l4,0l0,-5l1,0l0,5l4,0l0,-2.5l1,0l0,2.5l4,0l0,-5l1,0l0,5l4,0l0,-2.5l1,0l0,2.5l4,0l0,-5l1,0l0,5l4,0l0,-2.5l1,0l0,2.5l4,0l0,1l-25,0l-4,0Zm29,-15l1,0l0,15l-1,0l0,-15Z" style="fill:#666;"/><g><path d="M104.637,4.245l0.585,0c-0.005,-0.148 0.01,-0.295 0.044,-0.441c0.035,-0.146 0.091,-0.277 0.169,-0.392c0.077,-0.116 0.177,-0.21 0.298,-0.281c0.122,-0.072 0.267,-0.108 0.437,-0.108c0.128,0 0.25,0.021 0.364,0.062c0.115,0.042 0.214,0.102 0.299,0.181c0.085,0.079 0.152,0.172 0.203,0.281c0.05,0.109 0.075,0.23 0.075,0.364c0,0.172 -0.026,0.322 -0.079,0.452c-0.052,0.129 -0.13,0.249 -0.233,0.361c-0.103,0.111 -0.233,0.221 -0.389,0.329c-0.155,0.109 -0.336,0.228 -0.543,0.358c-0.169,0.102 -0.332,0.21 -0.487,0.326c-0.156,0.116 -0.296,0.25 -0.42,0.403c-0.123,0.152 -0.225,0.332 -0.305,0.537c-0.081,0.206 -0.132,0.455 -0.155,0.747l3.182,0l0,-0.521l-2.502,0c0.028,-0.153 0.086,-0.288 0.176,-0.406c0.089,-0.118 0.197,-0.228 0.323,-0.33c0.125,-0.102 0.264,-0.198 0.415,-0.288c0.151,-0.09 0.303,-0.181 0.454,-0.274c0.151,-0.097 0.298,-0.199 0.44,-0.305c0.142,-0.107 0.268,-0.226 0.378,-0.358c0.109,-0.132 0.198,-0.281 0.264,-0.448c0.067,-0.166 0.1,-0.358 0.1,-0.576c0,-0.231 -0.04,-0.435 -0.121,-0.61c-0.08,-0.176 -0.189,-0.323 -0.326,-0.441c-0.137,-0.118 -0.299,-0.208 -0.484,-0.271c-0.186,-0.062 -0.384,-0.094 -0.595,-0.094c-0.256,0 -0.485,0.044 -0.687,0.132c-0.202,0.088 -0.37,0.21 -0.505,0.365c-0.135,0.155 -0.235,0.339 -0.299,0.551c-0.064,0.213 -0.089,0.445 -0.076,0.695Z" style="fill:#a0a0a0;fill-rule:nonzero;"/><path d="M109.063,5.001c0,-0.12 0.001,-0.253 0.003,-0.399c0.003,-0.146 0.014,-0.291 0.035,-0.437c0.02,-0.146 0.05,-0.288 0.089,-0.427c0.039,-0.139 0.096,-0.26 0.172,-0.365c0.075,-0.104 0.17,-0.188 0.285,-0.253c0.114,-0.065 0.254,-0.097 0.419,-0.097c0.165,0 0.305,0.032 0.419,0.097c0.115,0.065 0.21,0.149 0.285,0.253c0.076,0.105 0.133,0.226 0.172,0.365c0.039,0.139 0.069,0.281 0.09,0.427c0.02,0.146 0.032,0.291 0.034,0.437c0.002,0.146 0.003,0.279 0.003,0.399c0,0.185 -0.005,0.392 -0.017,0.621c-0.011,0.229 -0.048,0.445 -0.11,0.646c-0.062,0.201 -0.161,0.371 -0.299,0.51c-0.137,0.139 -0.33,0.208 -0.577,0.208c-0.247,0 -0.44,-0.069 -0.577,-0.208c-0.138,-0.139 -0.237,-0.309 -0.299,-0.51c-0.062,-0.201 -0.099,-0.417 -0.11,-0.646c-0.011,-0.229 -0.017,-0.436 -0.017,-0.621Zm-0.619,0.007c0,0.181 0.005,0.368 0.014,0.562c0.009,0.195 0.032,0.384 0.069,0.57c0.036,0.185 0.089,0.359 0.158,0.524c0.069,0.164 0.163,0.308 0.282,0.433c0.119,0.125 0.269,0.224 0.45,0.295c0.181,0.072 0.397,0.108 0.649,0.108c0.257,0 0.474,-0.036 0.653,-0.108c0.179,-0.071 0.327,-0.17 0.447,-0.295c0.119,-0.125 0.213,-0.269 0.281,-0.433c0.069,-0.165 0.122,-0.339 0.158,-0.524c0.037,-0.186 0.06,-0.375 0.069,-0.57c0.009,-0.194 0.014,-0.381 0.014,-0.562c0,-0.18 -0.005,-0.368 -0.014,-0.562c-0.009,-0.194 -0.032,-0.384 -0.069,-0.569c-0.036,-0.185 -0.089,-0.361 -0.158,-0.528c-0.068,-0.166 -0.162,-0.312 -0.281,-0.437c-0.12,-0.125 -0.27,-0.225 -0.451,-0.299c-0.18,-0.074 -0.397,-0.111 -0.649,-0.111c-0.252,0 -0.468,0.037 -0.649,0.111c-0.181,0.074 -0.331,0.174 -0.45,0.299c-0.119,0.125 -0.213,0.271 -0.282,0.437c-0.069,0.167 -0.122,0.343 -0.158,0.528c-0.037,0.185 -0.06,0.375 -0.069,0.569c-0.009,0.194 -0.014,0.382 -0.014,0.562Z" style="fill:#a0a0a0;fill-rule:nonzero;"/><path d="M112.884,5.001c0,-0.12 0.001,-0.253 0.003,-0.399c0.002,-0.146 0.014,-0.291 0.034,-0.437c0.021,-0.146 0.051,-0.288 0.09,-0.427c0.039,-0.139 0.096,-0.26 0.171,-0.365c0.076,-0.104 0.171,-0.188 0.286,-0.253c0.114,-0.065 0.254,-0.097 0.419,-0.097c0.165,0 0.304,0.032 0.419,0.097c0.114,0.065 0.21,0.149 0.285,0.253c0.076,0.105 0.133,0.226 0.172,0.365c0.039,0.139 0.069,0.281 0.089,0.427c0.021,0.146 0.032,0.291 0.035,0.437c0.002,0.146 0.003,0.279 0.003,0.399c0,0.185 -0.006,0.392 -0.017,0.621c-0.012,0.229 -0.048,0.445 -0.11,0.646c-0.062,0.201 -0.162,0.371 -0.299,0.51c-0.137,0.139 -0.33,0.208 -0.577,0.208c-0.248,0 -0.44,-0.069 -0.577,-0.208c-0.138,-0.139 -0.238,-0.309 -0.299,-0.51c-0.062,-0.201 -0.099,-0.417 -0.11,-0.646c-0.012,-0.229 -0.017,-0.436 -0.017,-0.621Zm-0.619,0.007c0,0.181 0.005,0.368 0.014,0.562c0.009,0.195 0.032,0.384 0.069,0.57c0.036,0.185 0.089,0.359 0.158,0.524c0.068,0.164 0.162,0.308 0.281,0.433c0.119,0.125 0.269,0.224 0.45,0.295c0.181,0.072 0.398,0.108 0.65,0.108c0.256,0 0.474,-0.036 0.653,-0.108c0.178,-0.071 0.327,-0.17 0.446,-0.295c0.119,-0.125 0.213,-0.269 0.282,-0.433c0.069,-0.165 0.121,-0.339 0.158,-0.524c0.037,-0.186 0.06,-0.375 0.069,-0.57c0.009,-0.194 0.014,-0.381 0.014,-0.562c0,-0.18 -0.005,-0.368 -0.014,-0.562c-0.009,-0.194 -0.032,-0.384 -0.069,-0.569c-0.037,-0.185 -0.089,-0.361 -0.158,-0.528c-0.069,-0.166 -0.163,-0.312 -0.282,-0.437c-0.119,-0.125 -0.269,-0.225 -0.45,-0.299c-0.181,-0.074 -0.397,-0.111 -0.649,-0.111c-0.252,0 -0.469,0.037 -0.65,0.111c-0.181,0.074 -0.331,0.174 -0.45,0.299c-0.119,0.125 -0.213,0.271 -0.281,0.437c-0.069,0.167 -0.122,0.343 -0.158,0.528c-0.037,0.185 -0.06,0.375 -0.069,0.569c-0.009,0.194 -0.014,0.382 -0.014,0.562Z" style="fill:#a0a0a0;fill-rule:nonzero;"/></g><path id="short3" serif:id="short" d="M171,15l-1,0l-4,0l-1,0l-3.979,0l-1,0l-4.021,0l-1,0l-5,0l0,-0.98l5,-0.02l0,-2.5l1,0l0,2.5l4.021,0l0,-5l1,0l0,5l3.979,0l0,-2.5l1,0l0,2.5l4,0l0,-5l1,0l0,5l4,0l0,-2.5l1,0l0,2.5l4,0l0,-5l1,0l0,5l4,0l0,-2.5l1,0l0,2.5l4,0l0,-5l1,0l0,5l4,0l0,-2.5l1,0l0,2.5l4,0l0,1l-25,0l-4,0Zm29,-15l1,0l0,15l-1,0l0,-15Z" style="fill:#666;"/><g><path d="M155.792,4.612l0,0.5c0.11,-0.014 0.227,-0.021 0.351,-0.021c0.146,0 0.283,0.02 0.409,0.059c0.126,0.04 0.234,0.1 0.326,0.181c0.092,0.081 0.165,0.18 0.22,0.298c0.055,0.118 0.082,0.254 0.082,0.406c0,0.148 -0.028,0.282 -0.086,0.4c-0.057,0.118 -0.134,0.217 -0.23,0.298c-0.096,0.081 -0.208,0.143 -0.336,0.187c-0.129,0.044 -0.264,0.066 -0.406,0.066c-0.334,0 -0.589,-0.1 -0.763,-0.302c-0.174,-0.201 -0.265,-0.461 -0.275,-0.78l-0.584,0c-0.004,0.254 0.031,0.481 0.107,0.68c0.075,0.199 0.184,0.366 0.326,0.503c0.142,0.137 0.314,0.239 0.516,0.309c0.201,0.069 0.426,0.104 0.673,0.104c0.229,0 0.446,-0.031 0.649,-0.094c0.204,-0.062 0.382,-0.156 0.533,-0.281c0.151,-0.125 0.271,-0.281 0.361,-0.468c0.089,-0.188 0.134,-0.404 0.134,-0.649c0,-0.297 -0.072,-0.553 -0.217,-0.771c-0.144,-0.217 -0.365,-0.358 -0.663,-0.423l0,-0.014c0.193,-0.088 0.353,-0.218 0.481,-0.389c0.129,-0.171 0.193,-0.368 0.193,-0.59c0,-0.227 -0.038,-0.423 -0.114,-0.59c-0.075,-0.166 -0.18,-0.303 -0.312,-0.409c-0.133,-0.107 -0.29,-0.187 -0.471,-0.24c-0.181,-0.053 -0.377,-0.08 -0.588,-0.08c-0.242,0 -0.457,0.04 -0.642,0.118c-0.186,0.079 -0.34,0.188 -0.464,0.327c-0.124,0.138 -0.219,0.305 -0.285,0.499c-0.067,0.195 -0.104,0.41 -0.114,0.646l0.585,0c0,-0.144 0.018,-0.28 0.055,-0.41c0.036,-0.129 0.092,-0.243 0.168,-0.34c0.075,-0.097 0.172,-0.174 0.289,-0.232c0.116,-0.058 0.253,-0.087 0.408,-0.087c0.248,0 0.454,0.066 0.619,0.198c0.165,0.132 0.247,0.329 0.247,0.593c0,0.13 -0.025,0.246 -0.075,0.347c-0.051,0.102 -0.118,0.187 -0.203,0.254c-0.085,0.067 -0.183,0.118 -0.296,0.152c-0.112,0.035 -0.23,0.052 -0.353,0.052l-0.124,0l-0.069,0c-0.018,0 -0.039,-0.002 -0.062,-0.007Z" style="fill:#a0a0a0;fill-rule:nonzero;"/><path d="M159.022,5.001c0,-0.12 0.001,-0.253 0.003,-0.399c0.003,-0.146 0.014,-0.291 0.035,-0.437c0.02,-0.146 0.05,-0.288 0.089,-0.427c0.039,-0.139 0.096,-0.26 0.172,-0.365c0.076,-0.104 0.171,-0.188 0.285,-0.253c0.115,-0.065 0.254,-0.097 0.419,-0.097c0.165,0 0.305,0.032 0.419,0.097c0.115,0.065 0.21,0.149 0.286,0.253c0.075,0.105 0.132,0.226 0.171,0.365c0.039,0.139 0.069,0.281 0.09,0.427c0.02,0.146 0.032,0.291 0.034,0.437c0.002,0.146 0.004,0.279 0.004,0.399c0,0.185 -0.006,0.392 -0.018,0.621c-0.011,0.229 -0.048,0.445 -0.11,0.646c-0.061,0.201 -0.161,0.371 -0.299,0.51c-0.137,0.139 -0.329,0.208 -0.577,0.208c-0.247,0 -0.44,-0.069 -0.577,-0.208c-0.137,-0.139 -0.237,-0.309 -0.299,-0.51c-0.062,-0.201 -0.098,-0.417 -0.11,-0.646c-0.011,-0.229 -0.017,-0.436 -0.017,-0.621Zm-0.618,0.007c0,0.181 0.004,0.368 0.013,0.562c0.009,0.195 0.032,0.384 0.069,0.57c0.037,0.185 0.089,0.359 0.158,0.524c0.069,0.164 0.163,0.308 0.282,0.433c0.119,0.125 0.269,0.224 0.45,0.295c0.181,0.072 0.397,0.108 0.649,0.108c0.257,0 0.474,-0.036 0.653,-0.108c0.179,-0.071 0.328,-0.17 0.447,-0.295c0.119,-0.125 0.213,-0.269 0.281,-0.433c0.069,-0.165 0.122,-0.339 0.159,-0.524c0.036,-0.186 0.059,-0.375 0.068,-0.57c0.009,-0.194 0.014,-0.381 0.014,-0.562c0,-0.18 -0.005,-0.368 -0.014,-0.562c-0.009,-0.194 -0.032,-0.384 -0.068,-0.569c-0.037,-0.185 -0.09,-0.361 -0.159,-0.528c-0.068,-0.166 -0.162,-0.312 -0.281,-0.437c-0.119,-0.125 -0.269,-0.225 -0.45,-0.299c-0.181,-0.074 -0.398,-0.111 -0.65,-0.111c-0.252,0 -0.468,0.037 -0.649,0.111c-0.181,0.074 -0.331,0.174 -0.45,0.299c-0.119,0.125 -0.213,0.271 -0.282,0.437c-0.069,0.167 -0.121,0.343 -0.158,0.528c-0.037,0.185 -0.06,0.375 -0.069,0.569c-0.009,0.194 -0.013,0.382 -0.013,0.562Z" style="fill:#a0a0a0;fill-rule:nonzero;"/><path d="M162.843,5.001c0,-0.12 0.001,-0.253 0.003,-0.399c0.002,-0.146 0.014,-0.291 0.034,-0.437c0.021,-0.146 0.051,-0.288 0.09,-0.427c0.039,-0.139 0.096,-0.26 0.172,-0.365c0.075,-0.104 0.17,-0.188 0.285,-0.253c0.114,-0.065 0.254,-0.097 0.419,-0.097c0.165,0 0.305,0.032 0.419,0.097c0.115,0.065 0.21,0.149 0.285,0.253c0.076,0.105 0.133,0.226 0.172,0.365c0.039,0.139 0.069,0.281 0.089,0.427c0.021,0.146 0.032,0.291 0.035,0.437c0.002,0.146 0.003,0.279 0.003,0.399c0,0.185 -0.006,0.392 -0.017,0.621c-0.011,0.229 -0.048,0.445 -0.11,0.646c-0.062,0.201 -0.161,0.371 -0.299,0.51c-0.137,0.139 -0.33,0.208 -0.577,0.208c-0.247,0 -0.44,-0.069 -0.577,-0.208c-0.138,-0.139 -0.237,-0.309 -0.299,-0.51c-0.062,-0.201 -0.099,-0.417 -0.11,-0.646c-0.012,-0.229 -0.017,-0.436 -0.017,-0.621Zm-0.619,0.007c0,0.181 0.005,0.368 0.014,0.562c0.009,0.195 0.032,0.384 0.069,0.57c0.036,0.185 0.089,0.359 0.158,0.524c0.068,0.164 0.162,0.308 0.281,0.433c0.12,0.125 0.27,0.224 0.451,0.295c0.181,0.072 0.397,0.108 0.649,0.108c0.256,0 0.474,-0.036 0.653,-0.108c0.178,-0.071 0.327,-0.17 0.446,-0.295c0.12,-0.125 0.213,-0.269 0.282,-0.433c0.069,-0.165 0.122,-0.339 0.158,-0.524c0.037,-0.186 0.06,-0.375 0.069,-0.57c0.009,-0.194 0.014,-0.381 0.014,-0.562c0,-0.18 -0.005,-0.368 -0.014,-0.562c-0.009,-0.194 -0.032,-0.384 -0.069,-0.569c-0.036,-0.185 -0.089,-0.361 -0.158,-0.528c-0.069,-0.166 -0.162,-0.312 -0.282,-0.437c-0.119,-0.125 -0.269,-0.225 -0.45,-0.299c-0.181,-0.074 -0.397,-0.111 -0.649,-0.111c-0.252,0 -0.468,0.037 -0.649,0.111c-0.181,0.074 -0.331,0.174 -0.451,0.299c-0.119,0.125 -0.213,0.271 -0.281,0.437c-0.069,0.167 -0.122,0.343 -0.158,0.528c-0.037,0.185 -0.06,0.375 -0.069,0.569c-0.009,0.194 -0.014,0.382 -0.014,0.562Z" style="fill:#a0a0a0;fill-rule:nonzero;"/></g><path id="short4" serif:id="short" d="M221,15l-1,0l-4,0l-1,0l-3.979,0l-1,0l-4.021,0l-1,0l-5,0l0,-0.98l5,-0.02l0,-2.5l1,0l0,2.5l4.021,0l0,-5l1,0l0,5l3.979,0l0,-2.5l1,0l0,2.5l4,0l0,-5l1,0l0,5l4,0l0,-2.5l1,0l0,2.5l4,0l0,-5l1,0l0,5l4,0l0,-2.5l1,0l0,2.5l4,0l0,-5l1,0l0,5l4,0l0,-2.5l1,0l0,2.5l4,0l0,1l-25,0l-4,0Zm29,-15l1,0l0,15l-1,0l0,-15Z" style="fill:#666;"/><g><path d="M206.637,5.751l-1.635,0l1.621,-2.409l0.014,0l0,2.409Zm0.55,0l0,-3.249l-0.467,0l-2.22,3.2l0,0.569l2.137,0l0,1.153l0.55,0l0,-1.153l0.66,0l0,-0.52l-0.66,0Z" style="fill:#a0a0a0;fill-rule:nonzero;"/><path d="M209.035,5.001c0,-0.12 0.001,-0.253 0.004,-0.399c0.002,-0.146 0.014,-0.291 0.034,-0.437c0.021,-0.146 0.051,-0.288 0.089,-0.427c0.039,-0.139 0.097,-0.26 0.172,-0.365c0.076,-0.104 0.171,-0.188 0.285,-0.253c0.115,-0.065 0.255,-0.097 0.42,-0.097c0.165,0 0.304,0.032 0.419,0.097c0.114,0.065 0.209,0.149 0.285,0.253c0.076,0.105 0.133,0.226 0.172,0.365c0.039,0.139 0.068,0.281 0.089,0.427c0.021,0.146 0.032,0.291 0.034,0.437c0.003,0.146 0.004,0.279 0.004,0.399c0,0.185 -0.006,0.392 -0.017,0.621c-0.012,0.229 -0.048,0.445 -0.11,0.646c-0.062,0.201 -0.162,0.371 -0.299,0.51c-0.138,0.139 -0.33,0.208 -0.577,0.208c-0.248,0 -0.44,-0.069 -0.578,-0.208c-0.137,-0.139 -0.237,-0.309 -0.299,-0.51c-0.061,-0.201 -0.098,-0.417 -0.109,-0.646c-0.012,-0.229 -0.018,-0.436 -0.018,-0.621Zm-0.618,0.007c0,0.181 0.004,0.368 0.014,0.562c0.009,0.195 0.032,0.384 0.068,0.57c0.037,0.185 0.09,0.359 0.158,0.524c0.069,0.164 0.163,0.308 0.282,0.433c0.119,0.125 0.269,0.224 0.45,0.295c0.181,0.072 0.398,0.108 0.65,0.108c0.256,0 0.474,-0.036 0.652,-0.108c0.179,-0.071 0.328,-0.17 0.447,-0.295c0.119,-0.125 0.213,-0.269 0.282,-0.433c0.069,-0.165 0.121,-0.339 0.158,-0.524c0.037,-0.186 0.059,-0.375 0.069,-0.57c0.009,-0.194 0.013,-0.381 0.013,-0.562c0,-0.18 -0.004,-0.368 -0.013,-0.562c-0.01,-0.194 -0.032,-0.384 -0.069,-0.569c-0.037,-0.185 -0.089,-0.361 -0.158,-0.528c-0.069,-0.166 -0.163,-0.312 -0.282,-0.437c-0.119,-0.125 -0.269,-0.225 -0.45,-0.299c-0.181,-0.074 -0.397,-0.111 -0.649,-0.111c-0.252,0 -0.469,0.037 -0.65,0.111c-0.181,0.074 -0.331,0.174 -0.45,0.299c-0.119,0.125 -0.213,0.271 -0.282,0.437c-0.068,0.167 -0.121,0.343 -0.158,0.528c-0.036,0.185 -0.059,0.375 -0.068,0.569c-0.01,0.194 -0.014,0.382 -0.014,0.562Z" style="fill:#a0a0a0;fill-rule:nonzero;"/><path d="M212.856,5.001c0,-0.12 0.001,-0.253 0.003,-0.399c0.003,-0.146 0.014,-0.291 0.035,-0.437c0.02,-0.146 0.05,-0.288 0.089,-0.427c0.039,-0.139 0.096,-0.26 0.172,-0.365c0.076,-0.104 0.171,-0.188 0.285,-0.253c0.115,-0.065 0.254,-0.097 0.419,-0.097c0.165,0 0.305,0.032 0.419,0.097c0.115,0.065 0.21,0.149 0.286,0.253c0.075,0.105 0.133,0.226 0.171,0.365c0.039,0.139 0.069,0.281 0.09,0.427c0.02,0.146 0.032,0.291 0.034,0.437c0.002,0.146 0.004,0.279 0.004,0.399c0,0.185 -0.006,0.392 -0.018,0.621c-0.011,0.229 -0.048,0.445 -0.11,0.646c-0.061,0.201 -0.161,0.371 -0.298,0.51c-0.138,0.139 -0.33,0.208 -0.578,0.208c-0.247,0 -0.439,-0.069 -0.577,-0.208c-0.137,-0.139 -0.237,-0.309 -0.299,-0.51c-0.062,-0.201 -0.098,-0.417 -0.11,-0.646c-0.011,-0.229 -0.017,-0.436 -0.017,-0.621Zm-0.618,0.007c0,0.181 0.004,0.368 0.013,0.562c0.009,0.195 0.032,0.384 0.069,0.57c0.037,0.185 0.089,0.359 0.158,0.524c0.069,0.164 0.163,0.308 0.282,0.433c0.119,0.125 0.269,0.224 0.45,0.295c0.181,0.072 0.397,0.108 0.649,0.108c0.257,0 0.474,-0.036 0.653,-0.108c0.179,-0.071 0.328,-0.17 0.447,-0.295c0.119,-0.125 0.213,-0.269 0.282,-0.433c0.068,-0.165 0.121,-0.339 0.158,-0.524c0.036,-0.186 0.059,-0.375 0.068,-0.57c0.009,-0.194 0.014,-0.381 0.014,-0.562c0,-0.18 -0.005,-0.368 -0.014,-0.562c-0.009,-0.194 -0.032,-0.384 -0.068,-0.569c-0.037,-0.185 -0.09,-0.361 -0.158,-0.528c-0.069,-0.166 -0.163,-0.312 -0.282,-0.437c-0.119,-0.125 -0.269,-0.225 -0.45,-0.299c-0.181,-0.074 -0.398,-0.111 -0.65,-0.111c-0.252,0 -0.468,0.037 -0.649,0.111c-0.181,0.074 -0.331,0.174 -0.45,0.299c-0.119,0.125 -0.213,0.271 -0.282,0.437c-0.069,0.167 -0.121,0.343 -0.158,0.528c-0.037,0.185 -0.06,0.375 -0.069,0.569c-0.009,0.194 -0.013,0.382 -0.013,0.562Z" style="fill:#a0a0a0;fill-rule:nonzero;"/></g><path id="short5" serif:id="short" d="M271,15l-1,0l-4,0l-1,0l-3.979,0l-1,0l-4.021,0l-1,0l-5,0l0,-0.98l5,-0.02l0,-2.5l1,0l0,2.5l4.021,0l0,-5l1,0l0,5l3.979,0l0,-2.5l1,0l0,2.5l4,0l0,-5l1,0l0,5l4,0l0,-2.5l1,0l0,2.5l4,0l0,-5l1,0l0,5l4,0l0,-2.5l1,0l0,2.5l4,0l0,-5l1,0l0,5l4,0l0,-2.5l1,0l0,2.5l4,0l0,1l-25,0l-4,0Zm29,-15l1,0l0,15l-1,0l0,-15Z" style="fill:#666;"/><g><path d="M257.489,3.106l0,-0.52l-2.405,0l-0.453,2.554l0.501,0.028c0.115,-0.139 0.246,-0.251 0.395,-0.337c0.149,-0.085 0.32,-0.128 0.512,-0.128c0.165,0 0.315,0.027 0.45,0.083c0.136,0.056 0.251,0.133 0.347,0.233c0.097,0.099 0.171,0.217 0.224,0.354c0.052,0.136 0.079,0.285 0.079,0.447c0,0.195 -0.028,0.365 -0.083,0.51c-0.055,0.146 -0.129,0.268 -0.223,0.365c-0.094,0.097 -0.204,0.17 -0.33,0.218c-0.126,0.049 -0.258,0.073 -0.395,0.073c-0.147,0 -0.281,-0.022 -0.402,-0.066c-0.121,-0.044 -0.227,-0.106 -0.316,-0.187c-0.089,-0.081 -0.16,-0.176 -0.213,-0.285c-0.053,-0.108 -0.084,-0.225 -0.093,-0.35l-0.584,0c0.005,0.222 0.048,0.421 0.131,0.597c0.082,0.176 0.194,0.323 0.336,0.441c0.142,0.118 0.306,0.208 0.492,0.27c0.185,0.063 0.383,0.094 0.594,0.094c0.284,0 0.533,-0.045 0.746,-0.135c0.213,-0.091 0.39,-0.212 0.532,-0.365c0.142,-0.152 0.249,-0.327 0.32,-0.524c0.071,-0.196 0.106,-0.399 0.106,-0.607c0,-0.282 -0.041,-0.529 -0.123,-0.739c-0.083,-0.211 -0.195,-0.387 -0.337,-0.528c-0.142,-0.141 -0.309,-0.246 -0.502,-0.316c-0.192,-0.069 -0.396,-0.104 -0.611,-0.104c-0.165,0 -0.331,0.029 -0.499,0.087c-0.167,0.058 -0.303,0.147 -0.408,0.267l-0.014,-0.014l0.261,-1.416l1.965,0Z" style="fill:#a0a0a0;fill-rule:nonzero;"/><path d="M258.987,5.001c0,-0.12 0.001,-0.253 0.004,-0.399c0.002,-0.146 0.013,-0.291 0.034,-0.437c0.021,-0.146 0.05,-0.288 0.089,-0.427c0.039,-0.139 0.097,-0.26 0.172,-0.365c0.076,-0.104 0.171,-0.188 0.285,-0.253c0.115,-0.065 0.255,-0.097 0.42,-0.097c0.164,0 0.304,0.032 0.419,0.097c0.114,0.065 0.209,0.149 0.285,0.253c0.075,0.105 0.133,0.226 0.172,0.365c0.039,0.139 0.068,0.281 0.089,0.427c0.021,0.146 0.032,0.291 0.034,0.437c0.003,0.146 0.004,0.279 0.004,0.399c0,0.185 -0.006,0.392 -0.017,0.621c-0.012,0.229 -0.048,0.445 -0.11,0.646c-0.062,0.201 -0.162,0.371 -0.299,0.51c-0.138,0.139 -0.33,0.208 -0.577,0.208c-0.248,0 -0.44,-0.069 -0.578,-0.208c-0.137,-0.139 -0.237,-0.309 -0.299,-0.51c-0.061,-0.201 -0.098,-0.417 -0.11,-0.646c-0.011,-0.229 -0.017,-0.436 -0.017,-0.621Zm-0.618,0.007c0,0.181 0.004,0.368 0.014,0.562c0.009,0.195 0.032,0.384 0.068,0.57c0.037,0.185 0.09,0.359 0.158,0.524c0.069,0.164 0.163,0.308 0.282,0.433c0.119,0.125 0.269,0.224 0.45,0.295c0.181,0.072 0.398,0.108 0.65,0.108c0.256,0 0.474,-0.036 0.652,-0.108c0.179,-0.071 0.328,-0.17 0.447,-0.295c0.119,-0.125 0.213,-0.269 0.282,-0.433c0.068,-0.165 0.121,-0.339 0.158,-0.524c0.036,-0.186 0.059,-0.375 0.068,-0.57c0.01,-0.194 0.014,-0.381 0.014,-0.562c0,-0.18 -0.004,-0.368 -0.014,-0.562c-0.009,-0.194 -0.032,-0.384 -0.068,-0.569c-0.037,-0.185 -0.09,-0.361 -0.158,-0.528c-0.069,-0.166 -0.163,-0.312 -0.282,-0.437c-0.119,-0.125 -0.269,-0.225 -0.45,-0.299c-0.181,-0.074 -0.398,-0.111 -0.649,-0.111c-0.252,0 -0.469,0.037 -0.65,0.111c-0.181,0.074 -0.331,0.174 -0.45,0.299c-0.119,0.125 -0.213,0.271 -0.282,0.437c-0.068,0.167 -0.121,0.343 -0.158,0.528c-0.036,0.185 -0.059,0.375 -0.068,0.569c-0.01,0.194 -0.014,0.382 -0.014,0.562Z" style="fill:#a0a0a0;fill-rule:nonzero;"/><path d="M262.808,5.001c0,-0.12 0.001,-0.253 0.003,-0.399c0.003,-0.146 0.014,-0.291 0.035,-0.437c0.02,-0.146 0.05,-0.288 0.089,-0.427c0.039,-0.139 0.096,-0.26 0.172,-0.365c0.075,-0.104 0.17,-0.188 0.285,-0.253c0.115,-0.065 0.254,-0.097 0.419,-0.097c0.165,0 0.305,0.032 0.419,0.097c0.115,0.065 0.21,0.149 0.286,0.253c0.075,0.105 0.132,0.226 0.171,0.365c0.039,0.139 0.069,0.281 0.09,0.427c0.02,0.146 0.032,0.291 0.034,0.437c0.002,0.146 0.003,0.279 0.003,0.399c0,0.185 -0.005,0.392 -0.017,0.621c-0.011,0.229 -0.048,0.445 -0.11,0.646c-0.062,0.201 -0.161,0.371 -0.299,0.51c-0.137,0.139 -0.329,0.208 -0.577,0.208c-0.247,0 -0.44,-0.069 -0.577,-0.208c-0.137,-0.139 -0.237,-0.309 -0.299,-0.51c-0.062,-0.201 -0.098,-0.417 -0.11,-0.646c-0.011,-0.229 -0.017,-0.436 -0.017,-0.621Zm-0.619,0.007c0,0.181 0.005,0.368 0.014,0.562c0.009,0.195 0.032,0.384 0.069,0.57c0.037,0.185 0.089,0.359 0.158,0.524c0.069,0.164 0.163,0.308 0.282,0.433c0.119,0.125 0.269,0.224 0.45,0.295c0.181,0.072 0.397,0.108 0.649,0.108c0.257,0 0.474,-0.036 0.653,-0.108c0.179,-0.071 0.328,-0.17 0.447,-0.295c0.119,-0.125 0.213,-0.269 0.281,-0.433c0.069,-0.165 0.122,-0.339 0.158,-0.524c0.037,-0.186 0.06,-0.375 0.069,-0.57c0.009,-0.194 0.014,-0.381 0.014,-0.562c0,-0.18 -0.005,-0.368 -0.014,-0.562c-0.009,-0.194 -0.032,-0.384 -0.069,-0.569c-0.036,-0.185 -0.089,-0.361 -0.158,-0.528c-0.068,-0.166 -0.162,-0.312 -0.281,-0.437c-0.119,-0.125 -0.269,-0.225 -0.45,-0.299c-0.181,-0.074 -0.398,-0.111 -0.65,-0.111c-0.252,0 -0.468,0.037 -0.649,0.111c-0.181,0.074 -0.331,0.174 -0.45,0.299c-0.119,0.125 -0.213,0.271 -0.282,0.437c-0.069,0.167 -0.121,0.343 -0.158,0.528c-0.037,0.185 -0.06,0.375 -0.069,0.569c-0.009,0.194 -0.014,0.382 -0.014,0.562Z" style="fill:#a0a0a0;fill-rule:nonzero;"/></g><path id="short6" serif:id="short" d="M321,15l-1,0l-4,0l-1,0l-3.979,0l-1,0l-4.021,0l-1,0l-5,0l0,-0.98l5,-0.02l0,-2.5l1,0l0,2.5l4.021,0l0,-5l1,0l0,5l3.979,0l0,-2.5l1,0l0,2.5l4,0l0,-5l1,0l0,5l4,0l0,-2.5l1,0l0,2.5l4,0l0,-5l1,0l0,5l4,0l0,-2.5l1,0l0,2.5l4,0l0,-5l1,0l0,5l4,0l0,-2.5l1,0l0,2.5l4,0l0,1l-25,0l-4,0Zm29,-15l1,0l0,15l-1,0l0,-15Z" style="fill:#666;"/><g><path d="M307.084,3.759l0.584,0c-0.037,-0.407 -0.174,-0.719 -0.412,-0.934c-0.239,-0.215 -0.559,-0.323 -0.962,-0.323c-0.349,0 -0.637,0.074 -0.866,0.222c-0.229,0.149 -0.413,0.345 -0.55,0.59c-0.137,0.246 -0.235,0.527 -0.292,0.844c-0.057,0.317 -0.086,0.644 -0.086,0.982c0,0.259 0.019,0.528 0.058,0.805c0.039,0.278 0.118,0.532 0.237,0.764c0.12,0.231 0.289,0.421 0.509,0.569c0.22,0.148 0.511,0.222 0.873,0.222c0.307,0 0.564,-0.052 0.773,-0.156c0.208,-0.104 0.375,-0.236 0.501,-0.396c0.126,-0.159 0.217,-0.336 0.272,-0.531c0.055,-0.194 0.082,-0.382 0.082,-0.562c0,-0.227 -0.034,-0.437 -0.103,-0.632c-0.068,-0.194 -0.166,-0.363 -0.292,-0.506c-0.126,-0.144 -0.282,-0.256 -0.467,-0.337c-0.186,-0.081 -0.395,-0.122 -0.629,-0.122c-0.266,0 -0.5,0.051 -0.704,0.153c-0.204,0.102 -0.375,0.266 -0.512,0.493l-0.014,-0.014c0.005,-0.19 0.023,-0.393 0.055,-0.611c0.032,-0.217 0.091,-0.42 0.175,-0.607c0.085,-0.187 0.203,-0.342 0.354,-0.465c0.151,-0.123 0.351,-0.184 0.598,-0.184c0.234,0 0.422,0.067 0.564,0.201c0.142,0.134 0.226,0.313 0.254,0.535Zm-0.88,1.02c0.165,0 0.309,0.03 0.433,0.09c0.124,0.06 0.227,0.14 0.309,0.24c0.083,0.099 0.143,0.217 0.182,0.354c0.039,0.136 0.059,0.281 0.059,0.434c0,0.143 -0.022,0.281 -0.065,0.413c-0.044,0.131 -0.107,0.248 -0.189,0.35c-0.083,0.102 -0.185,0.182 -0.306,0.24c-0.122,0.057 -0.262,0.086 -0.423,0.086c-0.16,0 -0.303,-0.029 -0.429,-0.086c-0.126,-0.058 -0.232,-0.136 -0.316,-0.233c-0.085,-0.097 -0.15,-0.213 -0.196,-0.347c-0.046,-0.134 -0.069,-0.278 -0.069,-0.43c0,-0.153 0.022,-0.298 0.065,-0.434c0.044,-0.137 0.109,-0.255 0.196,-0.354c0.087,-0.1 0.193,-0.178 0.316,-0.236c0.124,-0.058 0.268,-0.087 0.433,-0.087Z" style="fill:#a0a0a0;fill-rule:nonzero;"/><path d="M308.967,5.001c0,-0.12 0.001,-0.253 0.003,-0.399c0.002,-0.146 0.014,-0.291 0.034,-0.437c0.021,-0.146 0.051,-0.288 0.09,-0.427c0.039,-0.139 0.096,-0.26 0.172,-0.365c0.075,-0.104 0.17,-0.188 0.285,-0.253c0.114,-0.065 0.254,-0.097 0.419,-0.097c0.165,0 0.305,0.032 0.419,0.097c0.115,0.065 0.21,0.149 0.285,0.253c0.076,0.105 0.133,0.226 0.172,0.365c0.039,0.139 0.069,0.281 0.089,0.427c0.021,0.146 0.032,0.291 0.035,0.437c0.002,0.146 0.003,0.279 0.003,0.399c0,0.185 -0.006,0.392 -0.017,0.621c-0.011,0.229 -0.048,0.445 -0.11,0.646c-0.062,0.201 -0.161,0.371 -0.299,0.51c-0.137,0.139 -0.33,0.208 -0.577,0.208c-0.247,0 -0.44,-0.069 -0.577,-0.208c-0.138,-0.139 -0.237,-0.309 -0.299,-0.51c-0.062,-0.201 -0.099,-0.417 -0.11,-0.646c-0.012,-0.229 -0.017,-0.436 -0.017,-0.621Zm-0.619,0.007c0,0.181 0.005,0.368 0.014,0.562c0.009,0.195 0.032,0.384 0.069,0.57c0.036,0.185 0.089,0.359 0.158,0.524c0.068,0.164 0.162,0.308 0.281,0.433c0.12,0.125 0.27,0.224 0.451,0.295c0.18,0.072 0.397,0.108 0.649,0.108c0.256,0 0.474,-0.036 0.653,-0.108c0.178,-0.071 0.327,-0.17 0.446,-0.295c0.119,-0.125 0.213,-0.269 0.282,-0.433c0.069,-0.165 0.122,-0.339 0.158,-0.524c0.037,-0.186 0.06,-0.375 0.069,-0.57c0.009,-0.194 0.014,-0.381 0.014,-0.562c0,-0.18 -0.005,-0.368 -0.014,-0.562c-0.009,-0.194 -0.032,-0.384 -0.069,-0.569c-0.036,-0.185 -0.089,-0.361 -0.158,-0.528c-0.069,-0.166 -0.163,-0.312 -0.282,-0.437c-0.119,-0.125 -0.269,-0.225 -0.45,-0.299c-0.181,-0.074 -0.397,-0.111 -0.649,-0.111c-0.252,0 -0.469,0.037 -0.649,0.111c-0.181,0.074 -0.331,0.174 -0.451,0.299c-0.119,0.125 -0.213,0.271 -0.281,0.437c-0.069,0.167 -0.122,0.343 -0.158,0.528c-0.037,0.185 -0.06,0.375 -0.069,0.569c-0.009,0.194 -0.014,0.382 -0.014,0.562Z" style="fill:#a0a0a0;fill-rule:nonzero;"/><path d="M312.787,5.001c0,-0.12 0.001,-0.253 0.004,-0.399c0.002,-0.146 0.013,-0.291 0.034,-0.437c0.021,-0.146 0.05,-0.288 0.089,-0.427c0.039,-0.139 0.097,-0.26 0.172,-0.365c0.076,-0.104 0.171,-0.188 0.285,-0.253c0.115,-0.065 0.255,-0.097 0.42,-0.097c0.165,0 0.304,0.032 0.419,0.097c0.114,0.065 0.209,0.149 0.285,0.253c0.076,0.105 0.133,0.226 0.172,0.365c0.039,0.139 0.068,0.281 0.089,0.427c0.021,0.146 0.032,0.291 0.034,0.437c0.003,0.146 0.004,0.279 0.004,0.399c0,0.185 -0.006,0.392 -0.017,0.621c-0.012,0.229 -0.048,0.445 -0.11,0.646c-0.062,0.201 -0.162,0.371 -0.299,0.51c-0.138,0.139 -0.33,0.208 -0.577,0.208c-0.248,0 -0.44,-0.069 -0.578,-0.208c-0.137,-0.139 -0.237,-0.309 -0.299,-0.51c-0.061,-0.201 -0.098,-0.417 -0.11,-0.646c-0.011,-0.229 -0.017,-0.436 -0.017,-0.621Zm-0.618,0.007c0,0.181 0.004,0.368 0.014,0.562c0.009,0.195 0.032,0.384 0.068,0.57c0.037,0.185 0.09,0.359 0.158,0.524c0.069,0.164 0.163,0.308 0.282,0.433c0.119,0.125 0.269,0.224 0.45,0.295c0.181,0.072 0.398,0.108 0.65,0.108c0.256,0 0.474,-0.036 0.652,-0.108c0.179,-0.071 0.328,-0.17 0.447,-0.295c0.119,-0.125 0.213,-0.269 0.282,-0.433c0.069,-0.165 0.121,-0.339 0.158,-0.524c0.036,-0.186 0.059,-0.375 0.069,-0.57c0.009,-0.194 0.013,-0.381 0.013,-0.562c0,-0.18 -0.004,-0.368 -0.013,-0.562c-0.01,-0.194 -0.033,-0.384 -0.069,-0.569c-0.037,-0.185 -0.089,-0.361 -0.158,-0.528c-0.069,-0.166 -0.163,-0.312 -0.282,-0.437c-0.119,-0.125 -0.269,-0.225 -0.45,-0.299c-0.181,-0.074 -0.397,-0.111 -0.649,-0.111c-0.252,0 -0.469,0.037 -0.65,0.111c-0.181,0.074 -0.331,0.174 -0.45,0.299c-0.119,0.125 -0.213,0.271 -0.282,0.437c-0.068,0.167 -0.121,0.343 -0.158,0.528c-0.036,0.185 -0.059,0.375 -0.068,0.569c-0.01,0.194 -0.014,0.382 -0.014,0.562Z" style="fill:#a0a0a0;fill-rule:nonzero;"/></g><rect id="border" x="0" y="0" width="351" height="1" style="fill:#383838;"/></svg>