<svg xmlns="http://www.w3.org/2000/svg" viewBox="0 0 351 15"  fill-rule="evenodd" stroke-linejoin="round" stroke-miterlimit="2" xmlns:v="https://vecta.io/nano"><style><![CDATA[.B{fill:#666}.C{fill:#a0a0a0}.D{fill-rule:nonzero}]]></style><path d="M0 0h351v15H0z" fill="#474747"/><path d="M0 0h1v14.016L5 14v-2.5h1V14h4.02V9h1v5H15v-2.5h1V14h4V9h1v5h4v-2.5h1V14h4V9h1v5h4v-2.5h1V14h4V9h1v5h4v-2.5h1V14h4v1H0V0zm51 15h-1V0h1v15z" class="B"/><path d="M4.063 5l.003-.4c.002-.146.012-.29.03-.437a3.7 3.7 0 0 1 .081-.427c.036-.14.088-.26.156-.365a.85.85 0 0 1 .26-.253c.104-.065.23-.097.38-.097s.277.032.38.097.19.15.26.253.12.226.156.365a3.32 3.32 0 0 1 .081.427 3.78 3.78 0 0 1 .032.437l.003.4-.016.62a2.87 2.87 0 0 1-.1.646c-.056.2-.147.37-.272.5s-.3.208-.525.208-.4-.07-.525-.208-.216-.31-.272-.5a2.93 2.93 0 0 1-.1-.646L4.063 5zm-.563.007l.013.562a4.25 4.25 0 0 0 .062.57 2.88 2.88 0 0 0 .144.524 1.43 1.43 0 0 0 .256.433 1.12 1.12 0 0 0 .409.295c.165.072.362.108.59.108s.43-.036.594-.108.298-.17.406-.295a1.41 1.41 0 0 0 .256-.433 2.88 2.88 0 0 0 .144-.524c.034-.186.054-.375.063-.57l.012-.562-.012-.562c-.01-.194-.03-.384-.063-.57a2.97 2.97 0 0 0-.144-.528c-.062-.166-.147-.312-.256-.437s-.245-.225-.41-.3-.362-.11-.59-.11-.426.037-.59.11-.3.174-.41.3-.194.27-.256.437a2.97 2.97 0 0 0-.144.528c-.033.185-.054.375-.062.57l-.013.562z" class="C D"/><path d="M71 15H50v-.98l5-.02v-2.5h1V14h4.02V9h1v5H65v-2.5h1V14h4V9h1v5h4v-2.5h1V14h4V9h1v5h4v-2.5h1V14h4V9h1v5h4v-2.5h1V14h4v1H71zm29-15h1v15h-1V0z" class="B"/><path d="M56.35 7.424V2.502h-.446c-.032.185-.092.338-.18.458s-.193.216-.32.285a1.31 1.31 0 0 1-.423.142 2.92 2.92 0 0 1-.481.039v.472h1.264v3.526h.584zM58.633 5l.003-.4a3.59 3.59 0 0 1 .035-.437 3.17 3.17 0 0 1 .089-.427 1.14 1.14 0 0 1 .172-.365.88.88 0 0 1 .285-.253.84.84 0 0 1 .42-.097.84.84 0 0 1 .42.097c.115.065.2.15.286.253a1.16 1.16 0 0 1 .171.365l.1.427a3.57 3.57 0 0 1 .034.437l.003.4-.017.62c-.01.23-.048.445-.1.646a1.22 1.22 0 0 1-.299.51c-.137.14-.33.208-.577.208s-.44-.07-.577-.208a1.23 1.23 0 0 1-.299-.51 2.66 2.66 0 0 1-.11-.646l-.04-.62zm-.62.007l.014.562a3.81 3.81 0 0 0 .069.57 2.75 2.75 0 0 0 .158.524 1.42 1.42 0 0 0 .282.433 1.25 1.25 0 0 0 .45.295c.18.07.397.108.65.108a1.75 1.75 0 0 0 .653-.108c.18-.07.328-.17.447-.295a1.4 1.4 0 0 0 .281-.433 2.68 2.68 0 0 0 .158-.524 3.81 3.81 0 0 0 .069-.57l.014-.562-.014-.562c-.01-.194-.032-.384-.07-.57a2.76 2.76 0 0 0-.158-.528 1.41 1.41 0 0 0-.28-.437 1.28 1.28 0 0 0-.45-.299c-.18-.074-.398-.1-.65-.1a1.71 1.71 0 0 0-.649.111 1.28 1.28 0 0 0-.45.299c-.12.125-.213.27-.282.437a2.91 2.91 0 0 0-.158.528c-.038.185-.06.375-.07.57l-.014.562zM62.454 5l.003-.4a3.57 3.57 0 0 1 .034-.437c.02-.146.05-.288.1-.427a1.14 1.14 0 0 1 .172-.365.88.88 0 0 1 .285-.253c.114-.065.254-.097.42-.097a.84.84 0 0 1 .42.097.88.88 0 0 1 .285.253 1.14 1.14 0 0 1 .172.365 3.17 3.17 0 0 1 .089.427c.02.146.032.3.035.437l.003.4-.017.62c-.01.23-.048.445-.1.646a1.22 1.22 0 0 1-.299.51c-.137.14-.33.208-.577.208s-.44-.07-.577-.208a1.22 1.22 0 0 1-.299-.51 2.18 2.18 0 0 1-.1-.646l-.05-.62zm-.62.007l.014.562a3.81 3.81 0 0 0 .069.57 2.68 2.68 0 0 0 .158.524 1.4 1.4 0 0 0 .281.433 1.24 1.24 0 0 0 .45.295c.18.072.398.108.65.108s.474-.036.653-.108.327-.17.446-.295a1.42 1.42 0 0 0 .282-.433 2.75 2.75 0 0 0 .158-.524 3.81 3.81 0 0 0 .069-.57l.014-.562-.014-.562c-.01-.194-.032-.384-.07-.57s-.1-.36-.158-.528-.163-.312-.282-.437a1.28 1.28 0 0 0-.45-.299 1.71 1.71 0 0 0-.649-.111c-.252 0-.47.037-.65.1a1.29 1.29 0 0 0-.45.299c-.12.125-.213.27-.28.437a2.76 2.76 0 0 0-.158.528 3.93 3.93 0 0 0-.07.57l-.014.562z" class="C D"/><path d="M121 15h-21v-.98l5-.02v-2.5h1V14h4.02V9h1v5H115v-2.5h1V14h4V9h1v5h4v-2.5h1V14h4V9h1v5h4v-2.5h1V14h4V9h1v5h4v-2.5h1V14h4v1h-29zm29-15h1v15h-1V0z" class="B"/><path d="M104.637 4.245h.585c-.005-.148.01-.295.044-.44s.1-.277.17-.392a.9.9 0 0 1 .298-.281c.122-.072.267-.108.437-.108a1.07 1.07 0 0 1 .364.062.87.87 0 0 1 .299.181c.085.08.152.172.203.28a.86.86 0 0 1 .075.364 1.19 1.19 0 0 1-.079.452 1.19 1.19 0 0 1-.233.361 2.37 2.37 0 0 1-.389.329l-.543.358-.487.326a2.32 2.32 0 0 0-.42.403 2.01 2.01 0 0 0-.305.537c-.08.206-.132.455-.155.747h3.182v-.52h-2.502c.028-.153.086-.288.176-.406a1.93 1.93 0 0 1 .323-.33 3.45 3.45 0 0 1 .415-.288l.454-.274.44-.305c.142-.107.268-.226.378-.358s.198-.28.264-.448a1.53 1.53 0 0 0 .1-.576 1.44 1.44 0 0 0-.121-.61 1.26 1.26 0 0 0-.326-.44 1.45 1.45 0 0 0-.484-.271 1.87 1.87 0 0 0-.595-.094c-.256 0-.485.044-.687.132a1.4 1.4 0 0 0-.505.365 1.48 1.48 0 0 0-.299.551 2.01 2.01 0 0 0-.076.695zm4.426.755l.003-.4a3.59 3.59 0 0 1 .035-.437 3.17 3.17 0 0 1 .089-.427 1.14 1.14 0 0 1 .172-.365.88.88 0 0 1 .285-.253c.114-.065.254-.097.42-.097a.84.84 0 0 1 .42.097.88.88 0 0 1 .285.253 1.14 1.14 0 0 1 .172.365l.1.427a3.57 3.57 0 0 1 .034.437l.003.4-.017.62c-.01.23-.048.445-.1.646a1.22 1.22 0 0 1-.299.51c-.137.14-.33.208-.577.208s-.44-.07-.577-.208a1.22 1.22 0 0 1-.299-.51 2.18 2.18 0 0 1-.1-.646l-.017-.62zm-.62.007l.014.562a3.81 3.81 0 0 0 .069.57 2.68 2.68 0 0 0 .158.524 1.42 1.42 0 0 0 .282.433 1.25 1.25 0 0 0 .45.295c.18.07.397.108.65.108a1.75 1.75 0 0 0 .653-.108c.18-.07.327-.17.447-.295a1.4 1.4 0 0 0 .281-.433 2.68 2.68 0 0 0 .158-.524 3.81 3.81 0 0 0 .069-.57l.014-.562-.014-.562c-.01-.194-.032-.384-.07-.57a2.76 2.76 0 0 0-.158-.528 1.41 1.41 0 0 0-.28-.437c-.118-.125-.27-.225-.45-.3a1.69 1.69 0 0 0-.65-.11 1.71 1.71 0 0 0-.649.111 1.28 1.28 0 0 0-.45.299c-.12.125-.213.27-.282.437a2.76 2.76 0 0 0-.158.528 3.93 3.93 0 0 0-.07.57l-.014.562zm4.44-.007l.003-.4a3.57 3.57 0 0 1 .034-.437c.02-.146.05-.288.1-.427a1.16 1.16 0 0 1 .171-.365c.076-.104.17-.188.286-.253s.254-.097.42-.097.304.032.42.097a.89.89 0 0 1 .285.253 1.14 1.14 0 0 1 .172.365 3.17 3.17 0 0 1 .089.427c.02.146.032.3.035.437l.003.4-.017.62a2.66 2.66 0 0 1-.11.646 1.23 1.23 0 0 1-.299.51c-.137.14-.33.208-.577.208s-.44-.07-.577-.208a1.21 1.21 0 0 1-.299-.51 2.18 2.18 0 0 1-.1-.646l-.017-.62zm-.62.007l.014.562a3.81 3.81 0 0 0 .069.57 2.68 2.68 0 0 0 .158.524 1.4 1.4 0 0 0 .281.433 1.25 1.25 0 0 0 .45.295c.18.07.398.108.65.108s.474-.036.653-.108.327-.17.446-.295a1.42 1.42 0 0 0 .282-.433 2.75 2.75 0 0 0 .158-.524 3.81 3.81 0 0 0 .069-.57l.014-.562-.014-.562c-.01-.194-.032-.384-.07-.57s-.1-.36-.158-.528-.163-.312-.282-.437a1.28 1.28 0 0 0-.45-.299 1.71 1.71 0 0 0-.649-.111c-.252 0-.47.037-.65.1a1.28 1.28 0 0 0-.45.299c-.12.125-.213.27-.28.437a2.76 2.76 0 0 0-.158.528 3.93 3.93 0 0 0-.07.57l-.014.562z" class="C D"/><path d="M171 15h-21v-.98l5-.02v-2.5h1V14h4.02V9h1v5H165v-2.5h1V14h4V9h1v5h4v-2.5h1V14h4V9h1v5h4v-2.5h1V14h4V9h1v5h4v-2.5h1V14h4v1h-29zm29-15h1v15h-1V0z" class="B"/><path d="M155.792 4.612v.5c.1-.014.227-.02.35-.02a1.38 1.38 0 0 1 .409.059c.126.04.234.1.326.18s.165.18.22.298.082.254.082.406-.028.282-.086.4-.134.217-.23.298-.208.143-.336.187-.264.066-.406.066c-.334 0-.6-.1-.763-.302s-.265-.46-.275-.78h-.584a1.8 1.8 0 0 0 .107.68c.077.2.184.366.326.503a1.38 1.38 0 0 0 .516.309c.2.07.426.104.673.104a2.18 2.18 0 0 0 .649-.094 1.52 1.52 0 0 0 .533-.281c.15-.125.27-.28.36-.468a1.5 1.5 0 0 0 .134-.649c0-.297-.072-.553-.217-.77s-.365-.358-.663-.423V4.8a1.23 1.23 0 0 0 .481-.389c.13-.17.193-.368.193-.6s-.038-.423-.114-.6-.18-.303-.312-.4-.3-.187-.47-.24a2.03 2.03 0 0 0-.588-.08c-.242 0-.457.04-.642.118a1.28 1.28 0 0 0-.464.327 1.41 1.41 0 0 0-.285.5c-.065.195-.104.4-.114.646h.585c0-.144.018-.28.055-.4a1.07 1.07 0 0 1 .168-.34.82.82 0 0 1 .29-.232.91.91 0 0 1 .408-.087c.248 0 .454.066.62.198s.247.33.247.593c0 .13-.025.246-.075.347s-.118.187-.203.254-.183.118-.296.152a1.18 1.18 0 0 1-.353.052h-.193c-.018 0-.04-.002-.062-.007zm3.23.388l.003-.4a3.59 3.59 0 0 1 .035-.437 3.17 3.17 0 0 1 .089-.427 1.14 1.14 0 0 1 .172-.365.9.9 0 0 1 .285-.253.84.84 0 0 1 .42-.097.84.84 0 0 1 .42.097c.115.065.2.15.286.253a1.16 1.16 0 0 1 .171.365l.1.427a3.57 3.57 0 0 1 .034.437l.004.4-.018.62c-.01.23-.048.445-.1.646a1.21 1.21 0 0 1-.299.51c-.137.14-.33.208-.577.208s-.44-.07-.577-.208a1.23 1.23 0 0 1-.299-.51 2.66 2.66 0 0 1-.11-.646l-.017-.62zm-.618.007l.013.562a3.81 3.81 0 0 0 .069.57 2.75 2.75 0 0 0 .158.524 1.42 1.42 0 0 0 .282.433 1.25 1.25 0 0 0 .45.295c.18.07.397.108.65.108a1.75 1.75 0 0 0 .653-.108c.18-.07.328-.17.447-.295a1.4 1.4 0 0 0 .281-.433 2.75 2.75 0 0 0 .159-.524 3.81 3.81 0 0 0 .068-.57l.014-.562-.014-.562a3.93 3.93 0 0 0-.068-.569c-.037-.185-.1-.36-.16-.528a1.26 1.26 0 0 0-.28-.437 1.28 1.28 0 0 0-.45-.299c-.18-.074-.398-.1-.65-.1a1.71 1.71 0 0 0-.649.111 1.28 1.28 0 0 0-.45.299c-.12.125-.213.27-.282.437a2.91 2.91 0 0 0-.158.528c-.038.185-.06.375-.07.57l-.013.562zm4.44-.007l.003-.4a3.57 3.57 0 0 1 .034-.437c.02-.146.05-.288.1-.427a1.14 1.14 0 0 1 .172-.365.88.88 0 0 1 .285-.253c.114-.065.254-.097.42-.097a.84.84 0 0 1 .42.097.88.88 0 0 1 .285.253 1.14 1.14 0 0 1 .172.365 3.17 3.17 0 0 1 .089.427c.02.146.032.3.035.437l.003.4-.017.62c-.01.23-.048.445-.1.646a1.22 1.22 0 0 1-.299.51c-.137.14-.33.208-.577.208s-.44-.07-.577-.208a1.22 1.22 0 0 1-.299-.51 2.18 2.18 0 0 1-.1-.646l-.017-.62zm-.62.007l.014.562a3.81 3.81 0 0 0 .069.57 2.68 2.68 0 0 0 .158.524 1.4 1.4 0 0 0 .281.433 1.25 1.25 0 0 0 .45.295c.18.07.397.108.65.108s.474-.036.653-.108.327-.17.446-.295a1.4 1.4 0 0 0 .282-.433 2.68 2.68 0 0 0 .158-.524 3.81 3.81 0 0 0 .069-.57l.014-.562-.014-.562c-.01-.194-.032-.384-.07-.57a2.76 2.76 0 0 0-.158-.528c-.07-.166-.162-.312-.282-.437a1.28 1.28 0 0 0-.45-.299 1.71 1.71 0 0 0-.649-.111 1.71 1.71 0 0 0-.649.111c-.18.074-.33.174-.45.3a1.36 1.36 0 0 0-.28.437 2.76 2.76 0 0 0-.158.528 3.93 3.93 0 0 0-.07.57l-.014.562z" class="C D"/><path d="M221 15h-21v-.98l5-.02v-2.5h1V14h4.02V9h1v5H215v-2.5h1V14h4V9h1v5h4v-2.5h1V14h4V9h1v5h4v-2.5h1V14h4V9h1v5h4v-2.5h1V14h4v1h-29zm29-15h1v15h-1V0z" class="B"/><path d="M206.637 5.75h-1.635l1.62-2.4h.014v2.4zm.55 0V2.5h-.467l-2.22 3.2v.57h2.137v1.153h.55V6.27h.66v-.52h-.66zm1.848-.75l.004-.4a3.57 3.57 0 0 1 .034-.437c.02-.146.05-.288.1-.427a1.16 1.16 0 0 1 .172-.365.9.9 0 0 1 .285-.253c.115-.065.255-.097.42-.097s.304.032.42.097a.9.9 0 0 1 .285.253 1.14 1.14 0 0 1 .172.365c.04.14.068.28.1.427s.032.3.034.437l.004.4-.017.62a2.66 2.66 0 0 1-.11.646 1.23 1.23 0 0 1-.299.51c-.138.14-.33.208-.577.208s-.44-.07-.578-.208a1.23 1.23 0 0 1-.299-.51 2.66 2.66 0 0 1-.109-.646l-.018-.62zm-.618.007l.014.562a4.09 4.09 0 0 0 .068.57 2.82 2.82 0 0 0 .158.524 1.42 1.42 0 0 0 .282.433 1.25 1.25 0 0 0 .45.295c.18.07.398.108.65.108s.474-.036.652-.108a1.26 1.26 0 0 0 .447-.295 1.42 1.42 0 0 0 .282-.433 2.75 2.75 0 0 0 .158-.524c.037-.186.06-.375.07-.57l.013-.562-.013-.562a3.93 3.93 0 0 0-.069-.569c-.037-.185-.1-.36-.158-.528s-.163-.312-.282-.437a1.28 1.28 0 0 0-.45-.299 1.71 1.71 0 0 0-.649-.111c-.252 0-.47.037-.65.1a1.28 1.28 0 0 0-.45.299c-.12.125-.213.27-.282.437a2.91 2.91 0 0 0-.158.528 3.93 3.93 0 0 0-.068.569l-.014.562zm4.44-.007l.003-.4a3.59 3.59 0 0 1 .035-.437 3.17 3.17 0 0 1 .089-.427 1.14 1.14 0 0 1 .172-.365.9.9 0 0 1 .285-.253.84.84 0 0 1 .42-.097.84.84 0 0 1 .42.097c.115.065.2.15.286.253a1.14 1.14 0 0 1 .171.365l.1.427a3.57 3.57 0 0 1 .034.437l.004.4-.018.62c-.01.23-.048.445-.1.646s-.16.37-.298.5-.33.208-.578.208-.44-.07-.577-.208a1.23 1.23 0 0 1-.299-.51 2.66 2.66 0 0 1-.11-.646l-.017-.62zm-.618.007l.013.562a3.81 3.81 0 0 0 .069.57 2.75 2.75 0 0 0 .158.524 1.42 1.42 0 0 0 .282.433 1.25 1.25 0 0 0 .45.295c.18.07.397.108.65.108a1.75 1.75 0 0 0 .653-.108c.18-.07.328-.17.447-.295a1.42 1.42 0 0 0 .282-.433 2.82 2.82 0 0 0 .158-.524 3.81 3.81 0 0 0 .068-.57l.014-.562-.014-.562a3.93 3.93 0 0 0-.068-.569 2.91 2.91 0 0 0-.158-.528c-.07-.166-.163-.312-.282-.437a1.28 1.28 0 0 0-.45-.299c-.18-.074-.398-.1-.65-.1a1.71 1.71 0 0 0-.649.111 1.28 1.28 0 0 0-.45.299c-.12.125-.213.27-.282.437a2.91 2.91 0 0 0-.158.528c-.038.185-.06.375-.07.57l-.013.562z" class="C D"/><path d="M271 15h-21v-.98l5-.02v-2.5h1V14h4.02V9h1v5H265v-2.5h1V14h4V9h1v5h4v-2.5h1V14h4V9h1v5h4v-2.5h1V14h4V9h1v5h4v-2.5h1V14h4v1h-29zm29-15h1v15h-1V0z" class="B"/><path d="M257.5 3.106v-.52h-2.405l-.453 2.554.5.028a1.45 1.45 0 0 1 .395-.337 1.02 1.02 0 0 1 .512-.128c.165 0 .315.027.45.083a1 1 0 0 1 .347.233 1.03 1.03 0 0 1 .224.354 1.24 1.24 0 0 1 .079.447 1.34 1.34 0 0 1-.083.5c-.055.135-.13.268-.223.365a.9.9 0 0 1-.33.218 1.08 1.08 0 0 1-.395.073 1.17 1.17 0 0 1-.402-.066c-.12-.044-.227-.106-.316-.187s-.16-.176-.213-.285a.94.94 0 0 1-.093-.35h-.584a1.46 1.46 0 0 0 .131.597 1.25 1.25 0 0 0 .336.441c.142.118.306.208.492.27a1.83 1.83 0 0 0 .594.094c.284 0 .533-.045.746-.135s.4-.212.532-.365a1.51 1.51 0 0 0 .32-.524 1.77 1.77 0 0 0 .106-.607c0-.282-.04-.53-.123-.74a1.51 1.51 0 0 0-.337-.528 1.36 1.36 0 0 0-.502-.316 1.77 1.77 0 0 0-.61-.104 1.52 1.52 0 0 0-.499.087.94.94 0 0 0-.408.267l-.014-.014.26-1.416h1.965zM258.987 5l.004-.4a3.4 3.4 0 0 1 .034-.437 3.14 3.14 0 0 1 .09-.427 1.16 1.16 0 0 1 .172-.365.9.9 0 0 1 .285-.253c.115-.065.255-.097.42-.097a.84.84 0 0 1 .419.097.9.9 0 0 1 .285.253 1.16 1.16 0 0 1 .172.365c.04.14.068.28.1.427s.032.3.034.437l.004.4-.017.62a2.66 2.66 0 0 1-.11.646 1.23 1.23 0 0 1-.299.51c-.138.14-.33.208-.577.208s-.44-.07-.578-.208a1.23 1.23 0 0 1-.299-.51 2.71 2.71 0 0 1-.11-.646L258.99 5zm-.618.007l.014.562a4.09 4.09 0 0 0 .068.57 2.82 2.82 0 0 0 .158.524 1.42 1.42 0 0 0 .282.433 1.25 1.25 0 0 0 .45.295c.18.07.398.108.65.108s.474-.036.652-.108a1.26 1.26 0 0 0 .447-.295 1.42 1.42 0 0 0 .282-.433 2.82 2.82 0 0 0 .158-.524 3.81 3.81 0 0 0 .068-.57l.014-.562-.014-.562a3.93 3.93 0 0 0-.068-.569 2.91 2.91 0 0 0-.158-.528c-.07-.166-.163-.312-.282-.437a1.28 1.28 0 0 0-.45-.299c-.18-.074-.398-.1-.65-.1s-.47.037-.65.1a1.28 1.28 0 0 0-.45.299c-.12.125-.213.27-.282.437a2.91 2.91 0 0 0-.158.528 3.93 3.93 0 0 0-.068.569l-.014.562zm4.44-.007l.003-.4a3.59 3.59 0 0 1 .035-.437 3.17 3.17 0 0 1 .089-.427 1.14 1.14 0 0 1 .172-.365.88.88 0 0 1 .285-.253.84.84 0 0 1 .42-.097.84.84 0 0 1 .42.097c.115.065.2.15.286.253a1.16 1.16 0 0 1 .171.365l.1.427a3.57 3.57 0 0 1 .034.437l.003.4-.017.62c-.01.23-.048.445-.1.646a1.22 1.22 0 0 1-.299.51c-.137.14-.33.208-.577.208s-.44-.07-.577-.208a1.23 1.23 0 0 1-.299-.51 2.66 2.66 0 0 1-.11-.646L262.83 5zm-.62.007l.014.562a3.81 3.81 0 0 0 .069.57 2.75 2.75 0 0 0 .158.524 1.42 1.42 0 0 0 .282.433 1.25 1.25 0 0 0 .45.295c.18.07.397.108.65.108a1.75 1.75 0 0 0 .653-.108c.18-.07.328-.17.447-.295a1.4 1.4 0 0 0 .281-.433 2.68 2.68 0 0 0 .158-.524 3.81 3.81 0 0 0 .069-.57l.014-.562-.014-.562c-.01-.194-.032-.384-.07-.57a2.76 2.76 0 0 0-.158-.528 1.41 1.41 0 0 0-.28-.437 1.28 1.28 0 0 0-.45-.299c-.18-.074-.398-.1-.65-.1a1.71 1.71 0 0 0-.649.111 1.28 1.28 0 0 0-.45.299c-.12.125-.213.27-.282.437a2.91 2.91 0 0 0-.158.528c-.038.185-.06.375-.07.57l-.014.562z" class="C D"/><path d="M321 15h-21v-.98l5-.02v-2.5h1V14h4.02V9h1v5H315v-2.5h1V14h4V9h1v5h4v-2.5h1V14h4V9h1v5h4v-2.5h1V14h4V9h1v5h4v-2.5h1V14h4v1h-29zm29-15h1v15h-1V0z" class="B"/><path d="M307.084 3.76h.584c-.037-.407-.174-.72-.412-.934s-.56-.323-.962-.323c-.35 0-.637.074-.866.222a1.66 1.66 0 0 0-.55.59c-.137.246-.235.527-.292.844s-.086.644-.086.982a5.78 5.78 0 0 0 .058.805 2.41 2.41 0 0 0 .237.764 1.52 1.52 0 0 0 .509.569c.22.148.5.222.873.222.307 0 .564-.052.773-.156a1.45 1.45 0 0 0 .501-.396 1.52 1.52 0 0 0 .272-.53 2.06 2.06 0 0 0 .082-.562 1.88 1.88 0 0 0-.103-.632c-.068-.194-.166-.363-.292-.506a1.32 1.32 0 0 0-.467-.337c-.185-.08-.395-.122-.63-.122-.266 0-.5.05-.704.153s-.375.266-.512.493l-.014-.014a4.93 4.93 0 0 1 .055-.61c.032-.217.1-.42.175-.607s.203-.342.354-.465.35-.184.598-.184c.234 0 .422.067.564.2s.226.313.254.535zm-.88 1.02a.86.86 0 0 1 .433.1.9.9 0 0 1 .309.24c.083.1.143.217.182.354a1.57 1.57 0 0 1 .059.434 1.33 1.33 0 0 1-.065.413 1.07 1.07 0 0 1-.19.35.88.88 0 0 1-.306.24c-.122.057-.262.086-.423.086a1.03 1.03 0 0 1-.429-.086c-.126-.058-.232-.136-.316-.233a1.04 1.04 0 0 1-.196-.347 1.32 1.32 0 0 1-.069-.43c0-.153.022-.298.065-.434s.1-.255.196-.354a.95.95 0 0 1 .316-.236 1.01 1.01 0 0 1 .433-.087zm2.763.22l.003-.4a3.57 3.57 0 0 1 .034-.437c.02-.146.05-.288.1-.427a1.14 1.14 0 0 1 .172-.365.88.88 0 0 1 .285-.253c.114-.065.254-.097.42-.097a.84.84 0 0 1 .42.097.88.88 0 0 1 .285.253 1.14 1.14 0 0 1 .172.365 3.17 3.17 0 0 1 .089.427c.02.146.032.3.035.437l.003.4-.017.62c-.01.23-.048.445-.1.646a1.22 1.22 0 0 1-.299.51c-.137.14-.33.208-.577.208s-.44-.07-.577-.208a1.22 1.22 0 0 1-.299-.51 2.18 2.18 0 0 1-.1-.646L309 5zm-.62.007l.014.562a3.81 3.81 0 0 0 .069.57 2.68 2.68 0 0 0 .158.524 1.4 1.4 0 0 0 .281.433 1.25 1.25 0 0 0 .45.295 1.75 1.75 0 0 0 .649.108c.256 0 .474-.036.653-.108s.327-.17.446-.295a1.42 1.42 0 0 0 .282-.433 2.68 2.68 0 0 0 .158-.524 3.81 3.81 0 0 0 .069-.57l.014-.562-.014-.562c-.01-.194-.032-.384-.07-.57a2.76 2.76 0 0 0-.158-.528c-.07-.166-.163-.312-.282-.437a1.28 1.28 0 0 0-.45-.299 1.71 1.71 0 0 0-.649-.111c-.252 0-.47.037-.65.1s-.33.174-.45.3a1.36 1.36 0 0 0-.28.437 2.76 2.76 0 0 0-.158.528 3.93 3.93 0 0 0-.07.57l-.014.562zm4.44-.007l.004-.4a3.4 3.4 0 0 1 .034-.437 3.14 3.14 0 0 1 .09-.427 1.16 1.16 0 0 1 .172-.365.9.9 0 0 1 .285-.253c.115-.065.255-.097.42-.097s.304.032.42.097a.9.9 0 0 1 .285.253 1.14 1.14 0 0 1 .172.365c.04.14.068.28.1.427s.032.3.034.437l.004.4-.017.62a2.66 2.66 0 0 1-.11.646 1.23 1.23 0 0 1-.299.51c-.138.14-.33.208-.577.208s-.44-.07-.578-.208a1.23 1.23 0 0 1-.299-.51 2.71 2.71 0 0 1-.11-.646L312.8 5zm-.618.007l.014.562a4.09 4.09 0 0 0 .068.57 2.82 2.82 0 0 0 .158.524 1.42 1.42 0 0 0 .282.433 1.25 1.25 0 0 0 .45.295c.18.07.398.108.65.108s.474-.036.652-.108a1.26 1.26 0 0 0 .447-.295 1.42 1.42 0 0 0 .282-.433 2.75 2.75 0 0 0 .158-.524 4.09 4.09 0 0 0 .069-.57l.013-.562-.013-.562c-.01-.194-.033-.384-.07-.57a2.91 2.91 0 0 0-.158-.528c-.068-.168-.163-.312-.282-.437a1.28 1.28 0 0 0-.45-.299 1.71 1.71 0 0 0-.649-.111c-.252 0-.47.037-.65.1a1.28 1.28 0 0 0-.45.299c-.12.125-.213.27-.282.437a2.91 2.91 0 0 0-.158.528 3.93 3.93 0 0 0-.068.569l-.014.562z" class="C D"/><path d="M0 0h351v1H0z" fill="#383838"/></svg>