<svg xmlns="http://www.w3.org/2000/svg" viewBox="0 0 347 194"  fill-rule="evenodd" stroke-linejoin="round" stroke-miterlimit="2" xmlns:v="https://vecta.io/nano"><path d="M2.75 190.886c18.025 15.65 42.516-40.91 56.08-67.328 7.26-14.11 19.098-30.603 27.93-38.812 6.245-5.852 7.212-7.337 5.335-8.735-1.428-1.16-4.723.776-11.782 6.906l-5.545 4.914 3.4-15.48c4.252-19.396 4.836-27.26 3.093-38.85-1.13-7.02-2.587-11.216-6.035-17.47C67.58 2.153 60.3-2.434 51.478 1.186c-5 2.05-6.782 4.857-5.192 8.257 1.188 2.653 3.334 3.506 7.146 2.98 1.487-.203 3.31.502 5.243 1.9 2.734 1.994 5.685 5.398 8.205 9.64 9.272 15.727 3.585 45.707.174 62.067-2.83 13.567-11.276 24.284-20.64 36.09-12.738 16.062-57.916 56.382-43.665 68.755zm8.876-10.293c.082-8.357 30.604-43.005 32.136-42.545 1.054.316-5.938 10.635-14.845 24.667-12.653 19.904-17.324 21.278-17.29 17.878zm88.456-48.732c11.58-2.06 57.785-20.355 80.313-31.763 8.132-4.138 15.057-7.386 15.536-7.242.383.115 1.274 1.322 1.916 2.663 2.5 5.24 8.87 3.496 10.823-3.018 1.437-4.79.268-12.03-2.25-13.725-3.362-2.366-6.34-1.485-14.55 4.3-23.57 16.628-75.015 37.424-92.6 37.578-2.213.067-2.318-.278-1.514-2.96 2.96-9.865 28.533-45 52.238-71.82 19.453-22.04 23.294-26.84 24.558-31.053 2.3-7.663-2.52-12.136-8.793-8.276-11.743 7.127-12.748 8.39-10.325 13.2 1.38 2.7 1.35 2.806-1.8 7.394-1.792 2.49-10.622 13.83-19.578 25.24-26.847 33.812-42.794 56.695-46.912 66.944-2.715 6.756-2.416 7.52-1.496 9.23 2.548 3.687 8.488 4.353 14.436 3.318zm122.183-18.018c1.576-.64 14.377-6.86 28.352-14.464l25.65-13.813c.19.058-.785 4.358-2.078 9.713-1.17 4.84-1.36 11.61-.843 13.946 1.69 7.642 5.23 9.507 10 9.788 7.686.453 24.228-4.88 47.725-19.14 19.786-12.007 27.326-41.25-22.766-25.782-13.302 4.107-7.643 12.95-.986 9.204 50.664-19.13 36.715 13.896-15.478 25.843-11.64 2.664-12.576-3.668-8.4-20.373l2.633-10.172 7.548-5.67c20.813-15.785 36.53-33.726 43.513-49.693 5.593-12.73 4.3-19.904-4.033-22.403-6.705-2.012-13.343 2.366-22.078 14.78-8.007 11.38-21.29 36.522-26.933 50.803l-2.94 7.366-13.936 7.826C251.67 90.3 231.996 99.85 231.43 98.948c-.9-1.84 14.454-14.77 29.462-24.78 8.496-5.7 10.316-9.33 6.57-12.854-2.93-2.758-5.21-1.772-15.728 7.184-5.057 4.33-15.535 12.462-23.427 18.238-13.16 9.416-15.823 12.376-11.025 12.04 1.293-.134 1.4.21.307 1.763-.757 1.13-1.983 3.477-2.845 5.306-1.245 2.76-.035 5.652 1.32 6.747 1.456 1.176 4.027 2.13 6.198 1.25zm71.07-51.763c.718-2.395 10.928-22.51 14.175-28.113 4.607-7.7 9.76-14.1 15.248-18.812 8.074-7.078 10.277-5.374 7.06 5.354-3.132 10.44-14.49 25-29.787 38.046-6.168 5.25-7.414 5.92-6.695 3.525z" fill="#323546" fill-rule="nonzero"/></svg>