<?xml version="1.0" encoding="UTF-8" standalone="no"?><!DOCTYPE svg PUBLIC "-//W3C//DTD SVG 1.1//EN" "http://www.w3.org/Graphics/SVG/1.1/DTD/svg11.dtd"><svg width="100%" height="100%" viewBox="0 0 347 194" version="1.1" xmlns="http://www.w3.org/2000/svg" xmlns:xlink="http://www.w3.org/1999/xlink" xml:space="preserve" xmlns:serif="http://www.serif.com/" style="fill-rule:evenodd;clip-rule:evenodd;stroke-linejoin:round;stroke-miterlimit:2;"><path id="sig" d="M2.749,190.886c18.025,15.65 42.516,-40.911 56.079,-67.328c7.259,-14.109 19.098,-30.603 27.929,-38.812c6.245,-5.852 7.212,-7.337 5.335,-8.735c-1.428,-1.159 -4.723,0.776 -11.782,6.906l-5.545,4.914l3.39,-15.479c4.252,-19.396 4.836,-27.26 3.093,-38.849c-1.131,-7.021 -2.587,-11.216 -6.035,-17.471c-7.634,-13.879 -14.923,-18.466 -23.735,-14.846c-5,2.05 -6.782,4.857 -5.192,8.257c1.188,2.653 3.334,3.506 7.146,2.979c1.487,-0.203 3.311,0.502 5.243,1.91c2.734,1.994 5.685,5.398 8.205,9.641c9.272,15.727 3.585,45.707 0.174,62.067c-2.829,13.567 -11.276,24.284 -20.64,36.091c-12.738,16.062 -57.916,56.382 -43.665,68.755Zm8.876,-10.293c0.082,-8.357 30.604,-43.005 32.136,-42.545c1.054,0.316 -5.938,10.635 -14.845,24.667c-12.653,19.904 -17.324,21.278 -17.291,17.878Zm88.456,-48.732c11.58,-2.059 57.785,-20.355 80.313,-31.763c8.132,-4.138 15.057,-7.386 15.536,-7.242c0.383,0.115 1.274,1.322 1.916,2.663c2.5,5.239 8.869,3.496 10.823,-3.018c1.437,-4.789 0.268,-12.03 -2.251,-13.725c-3.362,-2.366 -6.341,-1.485 -14.55,4.301c-23.571,16.628 -75.015,37.424 -92.601,37.578c-2.213,0.067 -2.318,-0.278 -1.514,-2.96c2.96,-9.865 28.533,-44.999 52.238,-71.819c19.453,-22.04 23.294,-26.839 24.558,-31.053c2.299,-7.663 -2.519,-12.136 -8.793,-8.276c-11.743,7.127 -12.748,8.391 -10.325,13.19c1.379,2.71 1.351,2.806 -1.8,7.394c-1.792,2.491 -10.622,13.831 -19.578,25.239c-26.847,33.812 -42.794,56.695 -46.912,66.944c-2.715,6.756 -2.416,7.52 -1.496,9.229c2.548,3.687 8.488,4.353 14.436,3.318Zm122.183,-18.018c1.576,-0.639 14.377,-6.859 28.352,-14.464c13.878,-7.635 25.458,-13.87 25.65,-13.813c0.191,0.058 -0.785,4.358 -2.078,9.713c-1.169,4.841 -1.359,11.611 -0.843,13.946c1.691,7.642 5.231,9.507 10.01,9.788c7.686,0.453 24.228,-4.881 47.725,-19.14c19.786,-12.007 27.326,-41.25 -22.766,-25.782c-13.302,4.107 -7.643,12.95 -0.986,9.204c50.664,-19.131 36.715,13.896 -15.478,25.843c-11.639,2.664 -12.576,-3.668 -8.4,-20.373l2.633,-10.172l7.548,-5.671c20.813,-15.785 36.53,-33.726 43.513,-49.693c5.593,-12.73 4.3,-19.904 -4.033,-22.403c-6.705,-2.012 -13.343,2.366 -22.078,14.78c-8.007,11.379 -21.291,36.522 -26.933,50.803l-2.94,7.366l-13.936,7.826c-15.555,8.698 -35.228,18.248 -35.794,17.347c-0.91,-1.839 14.454,-14.77 29.462,-24.78c8.496,-5.699 10.316,-9.329 6.571,-12.854c-2.931,-2.758 -5.211,-1.772 -15.728,7.184c-5.057,4.33 -15.535,12.462 -23.427,18.238c-13.161,9.416 -15.823,12.376 -11.025,12.04c1.293,-0.134 1.399,0.211 0.307,1.763c-0.757,1.13 -1.983,3.477 -2.845,5.306c-1.245,2.759 -0.035,5.652 1.321,6.747c1.456,1.176 4.027,2.13 6.198,1.251Zm71.07,-51.763c0.718,-2.395 10.928,-22.509 14.175,-28.113c4.607,-7.701 9.76,-14.09 15.248,-18.812c8.074,-7.078 10.277,-5.374 7.059,5.354c-3.132,10.441 -14.491,24.99 -29.787,38.046c-6.168,5.249 -7.414,5.919 -6.695,3.525Z" style="fill:#323546;fill-rule:nonzero;"/></svg>